<svg width="36" height="36" viewBox="0 0 36 36" fill="none" xmlns="http://www.w3.org/2000/svg">
<path d="M23.6163 10.824C23.2051 10.6811 22.7577 10.6811 22.3465 10.824L7.02908 16.1514C6.01964 16.502 5.48558 17.6044 5.83613 18.6139C6.01476 19.1282 6.4018 19.5434 6.90231 19.7577L13.1837 22.4493L15.8757 28.7312C16.3 29.7146 17.4412 30.1679 18.4246 29.7436C18.647 29.6477 18.8494 29.5109 19.0215 29.3404C19.2287 29.1333 19.3864 28.882 19.483 28.6053L24.809 13.2866C25.1597 12.2772 24.6257 11.1746 23.6163 10.824ZM18.2635 28.1803C18.1466 28.5167 17.779 28.6947 17.4426 28.5777C17.2712 28.5182 17.1328 28.3891 17.0614 28.2223L14.4396 22.1054L23.5426 13.0025L18.2635 28.1803ZM13.5276 21.1933L7.41078 18.5716C7.16388 18.4701 7.00792 18.2238 7.02179 17.9573C7.02525 17.6893 7.19916 17.4534 7.45411 17.3708L22.6305 12.0904L13.5276 21.1933Z" fill="#D1B096"/>
</svg>
