<svg width="20" height="20" viewBox="0 0 20 20" fill="none" xmlns="http://www.w3.org/2000/svg">
<path d="M9.76982 3.33398C9.92414 3.33398 10.0785 3.33398 10.2328 3.33398C10.2755 3.34245 10.3181 3.35106 10.3609 3.35906C11.376 3.54938 12.0703 4.50853 11.9126 5.52783C11.8025 6.23926 11.3959 6.7356 10.7363 7.02501C10.6746 7.05208 10.6528 7.0847 10.653 7.15071C10.6549 7.97107 10.6542 8.79143 10.6544 9.61164C10.6544 9.71165 10.6569 9.71396 10.7598 9.71396C12.0095 9.71396 13.259 9.71365 14.5087 9.71442C14.5863 9.71442 14.6626 9.70565 14.738 9.69057C15.347 9.56872 15.7599 9.02899 15.7564 8.46603C15.7536 8.03538 15.7539 7.60474 15.7584 7.17409C15.7593 7.08886 15.7309 7.04747 15.6525 7.01485C14.9388 6.71775 14.419 5.97324 14.4854 5.12026C14.5331 4.50653 14.8136 4.02465 15.3126 3.66755C15.5748 3.47984 15.8721 3.37953 16.1896 3.33398C16.3388 3.33398 16.4879 3.33398 16.6371 3.33398C16.647 3.33675 16.6565 3.34091 16.6666 3.34229C17.1979 3.41799 17.6269 3.66878 17.9541 4.09204C18.1675 4.36806 18.2846 4.68392 18.3346 5.02641C18.3346 5.18026 18.3346 5.33412 18.3346 5.48798C18.332 5.49782 18.3285 5.50752 18.3268 5.51767C18.2044 6.2408 17.8016 6.74391 17.128 7.0327C17.0729 7.05624 17.0586 7.08978 17.0589 7.14471C17.0606 7.47027 17.0618 7.79598 17.0589 8.12154C17.057 8.32371 17.0689 8.52603 17.0461 8.72835C16.9817 9.29839 16.753 9.79366 16.3582 10.2077C15.8468 10.744 15.2126 11.0122 14.4715 11.015C13.2423 11.0194 12.0132 11.0162 10.784 11.0162C10.6545 11.0162 10.6545 11.0164 10.6545 11.1485C10.6545 11.9484 10.6561 12.7483 10.6525 13.5482C10.6521 13.6387 10.6797 13.6815 10.7646 13.7176C11.5468 14.0496 12.0192 14.854 11.9218 15.6762C11.8393 16.3736 11.4777 16.8804 10.8567 17.2057C10.6565 17.3105 10.4399 17.3634 10.2177 17.3965C10.0737 17.3965 9.92954 17.3965 9.78556 17.3965C9.74266 17.3886 9.69991 17.3806 9.65701 17.3731C8.63988 17.1943 7.92862 16.2212 8.08818 15.209C8.19976 14.5011 8.59775 14.0023 9.25377 13.7115C9.32723 13.6788 9.35053 13.6408 9.35022 13.5627C9.34744 12.7549 9.34852 11.9472 9.34852 11.1394C9.34852 11.0164 9.34837 11.0162 9.22522 11.0162C7.60747 11.0162 5.98973 11.0162 4.37183 11.0162C4.24621 11.0162 4.2459 11.0164 4.2459 11.1385C4.24575 11.9437 4.24698 12.7489 4.24405 13.5541C4.24374 13.6378 4.26859 13.6805 4.34791 13.7148C5.14173 14.0578 5.60547 14.8315 5.51149 15.6853C5.44173 16.3187 5.1192 16.8032 4.57368 17.1372C4.34004 17.2803 4.08217 17.3553 3.81318 17.3965C3.66396 17.3965 3.51488 17.3965 3.36565 17.3965C3.35331 17.3934 3.34112 17.3891 3.32862 17.3873C2.80084 17.3092 2.37383 17.0597 2.04868 16.6384C1.83541 16.3624 1.7172 16.047 1.66797 15.7041C1.66797 15.5502 1.66797 15.3963 1.66797 15.2425C1.67106 15.23 1.67491 15.2179 1.67707 15.2053C1.79991 14.4887 2.19991 13.989 2.86643 13.701C2.93217 13.6727 2.94405 13.6338 2.94389 13.5713C2.94281 11.4339 2.94266 9.29639 2.94467 7.15902C2.94467 7.08516 2.91951 7.05147 2.85223 7.02362C2.44744 6.85561 2.13371 6.58159 1.91195 6.20372C1.7817 5.9817 1.70886 5.7403 1.66797 5.48798C1.66797 5.33412 1.66797 5.18026 1.66797 5.02641C1.67136 5.00887 1.67522 4.99148 1.67815 4.97394C1.77244 4.39344 2.06612 3.94203 2.56087 3.6217C2.80624 3.46276 3.07846 3.37768 3.3655 3.33398C3.51473 3.33398 3.6638 3.33398 3.81303 3.33398C3.8584 3.34229 3.90362 3.3506 3.94899 3.35906C4.92769 3.54123 5.63494 4.44729 5.50886 5.4729C5.4192 6.20249 5.01426 6.71714 4.34143 7.01762C4.26828 7.05024 4.24343 7.08901 4.24374 7.16686C4.24621 7.97692 4.24513 8.78697 4.24528 9.59703C4.24528 9.71227 4.24744 9.71411 4.36102 9.71411C5.98602 9.71411 7.61102 9.71411 9.23602 9.71411C9.34775 9.71411 9.34821 9.71381 9.34821 9.60303C9.34837 8.79297 9.34698 7.98292 9.35022 7.17286C9.35053 7.08732 9.32213 7.04778 9.24405 7.01516C8.46118 6.68837 7.98818 5.89124 8.08139 5.05303C8.15408 4.39867 8.48571 3.90879 9.05099 3.57415C9.27275 3.44291 9.51704 3.37476 9.76982 3.33398Z" fill="white"/>
</svg>
