<svg width="20" height="20" viewBox="0 0 20 20" fill="none" xmlns="http://www.w3.org/2000/svg">
<path d="M9.42147 4.02075C9.42147 3.97986 9.42147 3.95345 9.42147 3.92705C9.42147 3.29697 9.42027 2.6669 9.42214 2.03683C9.42308 1.72085 9.66958 1.46534 9.97828 1.45354C10.3038 1.44121 10.5778 1.70369 10.5784 2.03254C10.5798 2.65591 10.5788 3.27928 10.5788 3.90265C10.5788 3.99273 10.5798 3.99381 10.6543 3.94943C11.0698 3.70156 11.4849 3.45275 11.9006 3.20514C12.2585 2.99199 12.698 3.18638 12.7787 3.59284C12.8264 3.83307 12.7123 4.07357 12.4844 4.21018C12.0579 4.46569 11.6308 4.72053 11.2041 4.97591C11.0147 5.08933 10.8261 5.20408 10.6358 5.31589C10.5943 5.34028 10.5779 5.36857 10.5779 5.41737C10.5791 6.51222 10.5787 7.60694 10.579 8.70179C10.579 8.77431 10.5851 8.77739 10.6489 8.74053C11.5654 8.20953 12.4804 7.67611 13.3999 7.15074C13.5081 7.08894 13.5475 7.02606 13.546 6.90273C13.542 6.55887 13.5524 6.21488 13.5587 5.87102C13.565 5.52944 13.5731 5.18786 13.5805 4.84628C13.5872 4.53419 13.8361 4.28351 14.1432 4.27962C14.4619 4.2756 14.7322 4.51663 14.7345 4.83046C14.7376 5.24121 14.7221 5.6521 14.7149 6.06299C14.7134 6.15013 14.7145 6.23727 14.7114 6.32427C14.7095 6.37803 14.7272 6.38004 14.7686 6.35577C15.0363 6.19946 15.3047 6.04449 15.573 5.88925C15.8567 5.72516 16.14 5.56014 16.4246 5.39766C16.6513 5.26829 16.9599 5.32741 17.1374 5.53132C17.3141 5.73428 17.3216 6.04261 17.1577 6.26274C17.0972 6.34411 17.0166 6.39773 16.9313 6.44707C16.3965 6.75607 15.8616 7.06494 15.3269 7.37408C15.3177 7.37944 15.3094 7.38628 15.2919 7.39874C15.3809 7.44902 15.4635 7.49567 15.5461 7.54205C15.9174 7.75078 16.2888 7.95911 16.6599 8.1681C16.9425 8.32736 17.04 8.66988 16.8867 8.9632C16.7507 9.22354 16.4008 9.33923 16.1281 9.19659C15.8003 9.02513 15.481 8.83732 15.1584 8.65607C14.8279 8.47054 14.4974 8.28487 14.1675 8.09812C14.1314 8.07761 14.1025 8.08137 14.0683 8.10121C13.185 8.61384 12.3014 9.12581 11.4179 9.63791C11.3503 9.67706 11.2837 9.71781 11.2148 9.75441C11.1683 9.77908 11.1718 9.79382 11.2152 9.81876C11.4358 9.94517 11.6551 10.0737 11.875 10.2012C12.2648 10.4268 12.6548 10.6523 13.0447 10.8777C13.3805 11.0719 13.7168 11.2654 14.0518 11.461C14.0933 11.4852 14.1247 11.4868 14.1677 11.4626C14.8055 11.1004 15.4442 10.7393 16.0834 10.3795C16.3514 10.2287 16.7037 10.3322 16.8613 10.6049C17.019 10.8778 16.9242 11.2317 16.6424 11.3961C16.3535 11.5646 16.0604 11.7257 15.7692 11.8902C15.6236 11.9724 15.4784 12.0554 15.3321 12.1364C15.29 12.1597 15.2837 12.1747 15.3304 12.2016C15.7692 12.4539 16.2074 12.7072 16.6454 12.9609C16.7766 13.037 16.9095 13.1107 17.0361 13.1937C17.2262 13.3183 17.3147 13.5716 17.258 13.803C17.2017 14.0325 17.0082 14.205 16.7827 14.2356C16.6362 14.2554 16.5045 14.2222 16.3793 14.1496C15.8698 13.8546 15.3605 13.5595 14.8506 13.2653C14.8228 13.2492 14.7922 13.2128 14.763 13.2292C14.7326 13.2462 14.7503 13.2909 14.7507 13.323C14.7555 13.6983 14.7603 14.0735 14.7684 14.4487C14.771 14.5737 14.7879 14.6989 14.7686 14.8231C14.7221 15.1228 14.4591 15.3458 14.1784 15.3279C13.8564 15.3072 13.6201 15.0644 13.6135 14.7427C13.6055 14.3474 13.6018 13.952 13.5943 13.5568C13.5881 13.2308 13.5781 12.9049 13.5725 12.5789C13.5717 12.5299 13.5464 12.5077 13.5097 12.4865C13.0173 12.2023 12.5252 11.9174 12.0329 11.633C11.5714 11.3665 11.1098 11.1001 10.6481 10.8338C10.5823 10.7959 10.5794 10.7972 10.5794 10.8718C10.5791 11.9644 10.5795 13.0569 10.5782 14.1495C10.5782 14.1983 10.5953 14.2271 10.6362 14.2515C11.1764 14.5734 11.716 14.8965 12.2555 15.2194C12.3417 15.2709 12.4277 15.3226 12.5128 15.3757C12.7853 15.5461 12.8688 15.8972 12.7034 16.1743C12.5435 16.442 12.1867 16.5304 11.9123 16.3675C11.4925 16.1181 11.074 15.8665 10.6545 15.6164C10.6343 15.6043 10.6135 15.5773 10.5901 15.5906C10.5667 15.6039 10.5794 15.6358 10.5794 15.6591C10.5787 16.2869 10.58 16.9148 10.5782 17.5426C10.5772 17.8703 10.2994 18.1337 9.97534 18.1192C9.6657 18.1054 9.42268 17.8507 9.42187 17.5334C9.42027 16.9324 9.42161 16.3313 9.4208 15.7303C9.4208 15.6957 9.43873 15.6469 9.4093 15.6298C9.38041 15.6129 9.34617 15.6515 9.31661 15.6692C8.9183 15.9069 8.52038 16.1452 8.12287 16.3841C7.90258 16.5166 7.68162 16.5203 7.46842 16.3761C7.12615 16.1445 7.13805 15.6314 7.4921 15.4099C7.79264 15.222 8.09946 15.0441 8.40362 14.8617C8.7269 14.668 9.04964 14.4735 9.37412 14.2817C9.42308 14.2527 9.42161 14.2126 9.42161 14.1673C9.42134 13.1105 9.42134 12.0536 9.42134 10.9969C9.42134 10.9544 9.42174 10.912 9.42121 10.8695C9.4204 10.7989 9.41599 10.7958 9.35593 10.8302C9.20506 10.9167 9.05446 11.0038 8.90399 11.091C8.42154 11.3702 7.9391 11.6496 7.45679 11.9288C7.14421 12.1098 6.83189 12.2912 6.51851 12.471C6.4824 12.4916 6.4713 12.5172 6.46956 12.557C6.45712 12.8361 6.46046 13.1154 6.45565 13.3945C6.44789 13.8477 6.44067 14.3011 6.42984 14.7544C6.42261 15.0564 6.17624 15.3075 5.88239 15.319C5.56673 15.3314 5.29642 15.1112 5.2785 14.7985C5.26325 14.5317 5.2805 14.263 5.28385 13.9952C5.28706 13.7383 5.29187 13.4815 5.29334 13.2246C5.29374 13.1659 5.25736 13.2044 5.24158 13.2134C5.08429 13.3021 4.92793 13.3925 4.77157 13.483C4.38958 13.7042 4.00544 13.922 3.62639 14.1484C3.28532 14.3522 2.91268 14.1944 2.78121 13.9153C2.64906 13.6348 2.757 13.3057 3.02597 13.151C3.55363 12.8475 4.07967 12.5412 4.60599 12.2354C4.68062 12.192 4.67942 12.1791 4.60291 12.1361C4.1832 11.8999 3.76215 11.6659 3.3443 11.4264C2.99374 11.2256 2.94532 10.7597 3.24212 10.4862C3.42255 10.3199 3.70089 10.2947 3.92773 10.4224C4.55329 10.7749 5.17952 11.126 5.80428 11.4796C5.85096 11.506 5.88399 11.4988 5.92626 11.4742C6.84808 10.9392 7.77043 10.4051 8.69279 9.87104C8.83871 9.78658 8.83978 9.78511 8.69359 9.70038C8.00463 9.30156 7.31514 8.90381 6.62592 8.50553C6.40777 8.37951 6.18935 8.2539 5.9724 8.12561C5.93 8.10054 5.8983 8.10295 5.85644 8.12668C5.21456 8.49091 4.57228 8.85461 3.92893 9.21617C3.65394 9.37074 3.29963 9.26684 3.14608 8.99149C2.98999 8.71144 3.0875 8.36128 3.36798 8.20175C3.80401 7.95374 4.24098 7.70708 4.67728 7.45947C4.696 7.44888 4.72623 7.44379 4.72663 7.41966C4.72717 7.39137 4.69467 7.38601 4.67447 7.37434C4.1206 7.05381 3.56513 6.73583 3.01287 6.41261C2.75151 6.25952 2.65655 5.95065 2.77492 5.67355C2.90733 5.36348 3.30097 5.23679 3.59308 5.40664C4.12702 5.71712 4.66243 6.02505 5.19744 6.33379C5.26151 6.37079 5.26338 6.37012 5.26204 6.29411C5.25348 5.81177 5.24171 5.32943 5.2365 4.84708C5.23422 4.63085 5.33547 4.46422 5.51925 4.35402C5.90058 4.12532 6.38302 4.39678 6.39238 4.84347C6.39854 5.13156 6.40188 5.41965 6.40736 5.70774C6.41552 6.13645 6.42582 6.56517 6.43171 6.99389C6.43251 7.05542 6.47157 7.07325 6.51129 7.09631C6.91442 7.33011 7.31768 7.56363 7.72108 7.79703C8.25957 8.10858 8.79819 8.42 9.33667 8.73141C9.35018 8.73919 9.36383 8.74696 9.37733 8.75461C9.4101 8.77311 9.42214 8.75943 9.42147 8.72592C9.42121 8.71251 9.42161 8.69911 9.42161 8.6857C9.42161 7.61096 9.42107 6.53635 9.42294 5.46161C9.42308 5.39739 9.40194 5.36267 9.34657 5.32996C8.9413 5.09094 8.53857 4.84775 8.13478 4.60618C7.93575 4.48714 7.73726 4.36716 7.53704 4.25012C7.20386 4.05534 7.11826 3.65357 7.34925 3.36065C7.52406 3.13892 7.85269 3.08355 8.10522 3.2345C8.51677 3.4805 8.92779 3.7273 9.33908 3.97356C9.36182 3.98724 9.38496 3.99997 9.42147 4.02075Z" fill="white"/>
</svg>
