<svg width="20" height="20" viewBox="0 0 20 20" fill="none" xmlns="http://www.w3.org/2000/svg">
<path d="M9.41698 17.6333C7.19429 17.6333 4.9716 17.6335 2.74869 17.6331C2.51493 17.6331 2.28348 17.6128 2.06726 17.5145C1.81088 17.3983 1.66905 17.2134 1.66969 16.9149C1.67412 14.5899 1.67793 12.2651 1.66799 9.94015C1.66567 9.4185 1.82102 8.95773 2.08205 8.52148C2.30081 8.15603 2.59038 7.84787 2.88629 7.5452C4.04223 6.36326 5.37466 5.42269 6.83476 4.65608C7.72882 4.18685 8.65734 3.79943 9.61481 3.48154C10.686 3.12581 11.7809 2.86457 12.8945 2.68174C13.5825 2.56908 14.2743 2.48813 14.9691 2.43402C15.8718 2.36364 16.7768 2.35032 17.6819 2.36892C18.0934 2.37738 18.3766 2.73331 18.3295 3.14378C18.2741 3.6259 18.2338 4.10971 18.1862 4.59267C18.1403 5.0583 18.0926 5.52372 18.0473 5.98936C18.0011 6.46556 17.9573 6.94176 17.9112 7.41796C17.8671 7.87661 17.8216 8.33527 17.7764 8.79393C17.7375 9.18939 17.698 9.58485 17.6591 9.98052C17.6117 10.4601 17.5646 10.9397 17.5177 11.4193C17.4729 11.8779 17.4289 12.3366 17.3839 12.795C17.3376 13.2676 17.29 13.74 17.2435 14.2126C17.2053 14.6011 17.17 14.99 17.1298 15.3785C17.0753 15.9067 17.044 16.4381 16.9605 16.9625C16.8903 17.4027 16.5938 17.6338 16.1487 17.6335C13.9048 17.6331 11.6608 17.6333 9.41698 17.6333ZM4.04857 9.87061C4.07415 9.90422 4.11093 9.90443 4.14305 9.91119C4.41212 9.9691 4.68139 10.0019 4.95934 9.98136C5.55179 9.93761 6.04215 9.69539 6.43571 9.25533C6.49151 9.19298 6.54836 9.17269 6.62783 9.17269C8.86426 9.17396 11.1009 9.17375 13.3373 9.17353C14.4115 9.17353 15.4858 9.17227 16.56 9.17544C16.6636 9.17565 16.6984 9.14733 16.7039 9.04016C16.717 8.79097 16.7475 8.54283 16.7699 8.29405C16.8102 7.84914 16.8502 7.40443 16.8897 6.95951C16.9212 6.60569 16.9523 6.25166 16.9825 5.89784C17.0222 5.43537 17.0624 4.97291 17.0996 4.51024C17.1264 4.17713 17.1457 3.84339 17.1748 3.5107C17.1898 3.34077 17.1856 3.32893 17.0148 3.32661C16.4196 3.31815 15.8259 3.33908 15.232 3.38346C14.6808 3.42468 14.1321 3.4845 13.5859 3.56587C12.7605 3.68867 11.9436 3.85523 11.1364 4.0687C9.91051 4.39293 8.72392 4.82137 7.58932 5.38909C6.68258 5.84288 5.82888 6.38101 5.0386 7.01742C4.87416 7.14995 4.71542 7.28966 4.55711 7.42937C4.46179 7.51349 4.46475 7.51582 4.56853 7.57923C4.61355 7.6067 4.65878 7.63418 4.70105 7.66588C5.17239 8.01865 5.39897 8.49886 5.43998 9.07779C5.44737 9.18262 5.39707 9.24984 5.32669 9.31367C5.07897 9.53877 4.78982 9.6863 4.46897 9.77317C4.33159 9.81016 4.19103 9.83785 4.04857 9.87061ZM9.40049 16.5266C9.40049 16.5268 9.40049 16.5268 9.40049 16.5271C11.5627 16.5271 13.725 16.5271 15.8872 16.5266C15.9327 16.5266 15.9796 16.5271 16.0235 16.5169C16.1208 16.4947 16.1956 16.4091 16.189 16.337C16.181 16.2497 16.1064 16.1963 15.9872 16.1939C15.9132 16.1925 15.8392 16.1931 15.7653 16.1931C14.5468 16.1931 13.3285 16.1935 12.11 16.1935C9.05322 16.1935 5.99649 16.1933 2.93998 16.1933C2.89432 16.1933 2.84803 16.1918 2.8028 16.1969C2.71466 16.2066 2.66055 16.2565 2.65231 16.3461C2.64407 16.4376 2.6948 16.4939 2.77786 16.5169C2.82077 16.529 2.86854 16.5264 2.91398 16.5264C5.07601 16.5268 7.23825 16.5266 9.40049 16.5266ZM14.7687 10.5533C14.7687 10.5531 14.7687 10.5531 14.7687 10.5529C14.4451 10.5529 14.1213 10.5518 13.7977 10.5531C13.5544 10.5542 13.3779 10.7167 13.372 10.9422C13.3663 11.1574 13.5396 11.3413 13.7778 11.3436C14.4322 11.3499 15.0866 11.3497 15.7407 11.3434C15.987 11.3411 16.1544 11.1614 16.148 10.9359C16.1419 10.7129 15.9639 10.5537 15.7183 10.5533C15.4019 10.5529 15.0853 10.5533 14.7687 10.5533Z" fill="white"/>
</svg>
