<svg width="20" height="21" viewBox="0 0 20 21" fill="none" xmlns="http://www.w3.org/2000/svg">
<path d="M16.6665 5.94336H3.33317C2.4127 5.94336 1.6665 6.68955 1.6665 7.61003V15.9434C1.6665 16.8638 2.4127 17.61 3.33317 17.61H16.6665C17.587 17.61 18.3332 16.8638 18.3332 15.9434V7.61003C18.3332 6.68955 17.587 5.94336 16.6665 5.94336Z" stroke="#D1B096" stroke-width="2" stroke-linecap="round" stroke-linejoin="round"/>
<path d="M13.3332 17.6094V4.27604C13.3332 3.83401 13.1576 3.41009 12.845 3.09753C12.5325 2.78497 12.1085 2.60938 11.6665 2.60938H8.33317C7.89114 2.60938 7.46722 2.78497 7.15466 3.09753C6.8421 3.41009 6.6665 3.83401 6.6665 4.27604V17.6094" stroke="#D1B096" stroke-width="2" stroke-linecap="round" stroke-linejoin="round"/>
</svg>
