<svg width="26" height="25" viewBox="0 0 26 25" fill="none" xmlns="http://www.w3.org/2000/svg">
<path d="M22.9011 11.7867C22.9011 9.65184 21.1643 7.91504 19.0294 7.91504C16.8943 7.91504 15.1575 9.65184 15.1575 11.7867C15.1575 13.2243 15.9511 14.5364 17.2283 15.2111L17.5367 15.374L17.2013 15.4701C16.8541 15.5698 16.5165 15.6971 16.198 15.8479L16.0634 15.9117L16.0078 15.7738C15.5718 14.6948 14.5409 13.9979 13.3817 13.9979C12.3822 13.9979 11.4454 14.5375 10.9373 15.4066L10.8721 15.5179L10.7558 15.4625C10.3595 15.2743 9.94487 15.1229 9.52324 15.0122L9.15246 14.915L9.49825 14.7496C10.9224 14.0684 11.8426 12.6139 11.8426 11.0448C11.8426 8.77909 9.99909 6.93555 7.73364 6.93555C5.46791 6.93555 3.62437 8.77909 3.62437 11.0448C3.62437 12.6142 4.54459 14.0687 5.96903 14.7499L6.31482 14.9153L5.94403 15.0125C2.83673 15.8266 0.666504 18.6381 0.666504 21.8493V22.3089H8.81173L8.74825 22.4945C8.57268 23.0094 8.48392 23.5389 8.48392 24.0684V24.528H18.2789V24.0681C18.2789 23.5384 18.1901 23.0089 18.0145 22.4943L17.9511 22.3086H25.6665V21.849C25.6665 18.9058 23.689 16.2827 20.8572 15.4701L20.5221 15.374L20.8305 15.2111C22.1078 14.5367 22.9011 13.2243 22.9011 11.7867ZM13.3817 14.9173C14.4367 14.9173 15.2954 15.7757 15.2954 16.8311C15.2954 17.8864 14.437 18.7448 13.3817 18.7448C12.3263 18.7448 11.4679 17.8864 11.4679 16.8311C11.4679 15.7757 12.3263 14.9173 13.3817 14.9173ZM4.54347 11.0448C4.54347 9.28555 5.97465 7.85465 7.73364 7.85465C9.49263 7.85465 10.9238 9.28583 10.9238 11.0448C10.9238 12.8038 9.49263 14.2347 7.73364 14.2347C5.97465 14.2347 4.54347 12.8041 4.54347 11.0448ZM9.2828 21.3898H1.60049L1.61594 21.2355C1.92999 18.0808 4.56004 15.7016 7.73364 15.7016C8.7033 15.7016 9.63195 15.9221 10.494 16.3569L10.5817 16.401L10.5702 16.4985C10.5558 16.6204 10.5488 16.7291 10.5488 16.8308C10.5488 17.7813 11.0244 18.6639 11.8207 19.1923L12.0575 19.3493L11.789 19.442C10.7904 19.787 9.91538 20.4566 9.32493 21.328L9.2828 21.3898ZM9.42605 23.6086L9.45162 23.4462C9.7533 21.5325 11.4429 20.0898 13.3817 20.0898C15.3202 20.0898 17.0098 21.5327 17.3112 23.4462L17.3367 23.6086H9.42605ZM24.7145 21.2344L24.7314 21.3898H17.48L17.4381 21.328C16.8477 20.4566 15.9727 19.787 14.9741 19.442L14.7055 19.3493L14.9423 19.1923C15.6938 18.694 16.1668 17.8591 16.2075 16.9597L16.2112 16.8811L16.2803 16.8431C17.1246 16.3774 18.0752 16.1313 19.0297 16.1313C21.9578 16.1313 24.4019 18.3252 24.7145 21.2344ZM19.0294 14.7395C17.4013 14.7395 16.0766 13.415 16.0766 11.7867C16.0766 10.1586 17.4011 8.83414 19.0294 8.83414C20.6578 8.83414 21.9822 10.1586 21.9822 11.7867C21.9822 13.415 20.6575 14.7395 19.0294 14.7395Z" fill="white"/>
<path d="M13.7363 0.940099L13.6568 0.994874L13.5773 0.940099C12.5217 0.214256 11.0969 0.345436 10.1896 1.25246C9.15228 2.2901 9.15228 3.9783 10.1896 5.01566L13.6278 8.45414L13.6565 8.42549L13.6854 8.45442L17.1239 5.01566C18.1613 3.9783 18.1613 2.2901 17.1239 1.25246C16.2166 0.345717 14.7922 0.213975 13.7363 0.940099ZM16.4739 4.36594L13.6854 7.15414L13.6568 7.12549L13.6278 7.15442L10.8391 4.36594C10.1601 3.68673 10.1601 2.58167 10.8391 1.90246C11.1674 1.57381 11.6051 1.39291 12.0708 1.39291C12.5368 1.39291 12.9742 1.57381 13.3026 1.90218L13.6562 2.25611L14.0099 1.90218C14.6894 1.22324 15.7947 1.22353 16.4733 1.90218C17.1528 2.58167 17.1531 3.68673 16.4739 4.36594Z" fill="white"/>
</svg>
