<svg width="21" height="19" viewBox="0 0 21 19" fill="none" xmlns="http://www.w3.org/2000/svg">
<path d="M11.3335 17.5V15.5C11.3335 12.7386 9.09492 10.5 6.3335 10.5C3.57207 10.5 1.3335 12.7386 1.3335 15.5V17.5H11.3335ZM11.3335 17.5H19.3335V16.5C19.3335 13.5545 17.0949 11.5 14.3335 11.5C12.9202 11.5 11.6438 12.1255 10.7344 13.1311M9.3335 4.5C9.3335 6.15685 7.99035 7.5 6.3335 7.5C4.67664 7.5 3.3335 6.15685 3.3335 4.5C3.3335 2.84315 4.67664 1.5 6.3335 1.5C7.99035 1.5 9.3335 2.84315 9.3335 4.5ZM16.3335 6.5C16.3335 7.60457 15.4381 8.5 14.3335 8.5C13.2289 8.5 12.3335 7.60457 12.3335 6.5C12.3335 5.39543 13.2289 4.5 14.3335 4.5C15.4381 4.5 16.3335 5.39543 16.3335 6.5Z" stroke="white" stroke-width="2" stroke-linecap="round" stroke-linejoin="round"/>
</svg>
