<svg width="19" height="20" viewBox="0 0 19 20" fill="none" xmlns="http://www.w3.org/2000/svg">
<path fill-rule="evenodd" clip-rule="evenodd" d="M13.4306 11.3764L13.4184 11.3707C13.1892 11.2727 12.939 11.2333 12.6907 11.2562C12.4424 11.2792 12.2037 11.3636 11.9963 11.502C11.9718 11.5181 11.9484 11.5357 11.9259 11.5545L9.64407 13.4998C8.19845 12.7976 6.70595 11.3164 6.00376 9.8895L7.95188 7.57294C7.97063 7.5495 7.98845 7.52606 8.00532 7.50075C8.14072 7.29384 8.22287 7.05667 8.24446 6.81035C8.26605 6.56402 8.22641 6.31618 8.12907 6.08887V6.07762L6.14438 1.65356C6.0157 1.35662 5.79444 1.10926 5.51362 0.948409C5.2328 0.787556 4.9075 0.721836 4.58626 0.76106C3.31592 0.928223 2.14986 1.55209 1.30588 2.51615C0.461903 3.48021 -0.00228837 4.71852 8.4831e-06 5.99981C8.4831e-06 13.4436 6.05626 19.4998 13.5 19.4998C14.7813 19.5021 16.0196 19.0379 16.9837 18.1939C17.9477 17.35 18.5716 16.1839 18.7388 14.9136C18.7781 14.5924 18.7125 14.2672 18.5518 13.9864C18.3911 13.7056 18.144 13.4843 17.8472 13.3554L13.4306 11.3764ZM5.01856 14.4813C2.76888 12.2316 1.50348 9.18134 1.50001 5.99981C1.49648 5.08433 1.82631 4.19887 2.42789 3.50879C3.02947 2.8187 3.86167 2.37118 4.76907 2.24981C4.7687 2.25355 4.7687 2.25732 4.76907 2.26106L6.73782 6.66731L4.80001 8.98669C4.78034 9.00932 4.76247 9.03345 4.74657 9.05887C4.60549 9.27536 4.52273 9.52462 4.5063 9.78249C4.48988 10.0404 4.54035 10.2981 4.65282 10.5307C5.5022 12.2679 7.25251 14.0051 9.00845 14.8536C9.24279 14.965 9.50203 15.0137 9.76083 14.995C10.0196 14.9762 10.2692 14.8907 10.485 14.7467C10.5091 14.7305 10.5322 14.7129 10.5544 14.6942L12.8334 12.7498L17.2397 14.7232C17.2397 14.7232 17.2472 14.7232 17.25 14.7232C17.1301 15.6319 16.6833 16.4658 15.9931 17.0689C15.3028 17.672 14.4166 18.0029 13.5 17.9998C10.3185 17.9963 7.26825 16.7309 5.01856 14.4813Z" fill="white"/>
</svg>
