<svg width="20" height="21" viewBox="0 0 20 21" fill="none" xmlns="http://www.w3.org/2000/svg">
<path d="M10.0002 10.5455C10.9206 10.5455 11.6668 9.79935 11.6668 8.87888C11.6668 7.95841 10.9206 7.21221 10.0002 7.21221C9.07969 7.21221 8.3335 7.95841 8.3335 8.87888C8.3335 9.79935 9.07969 10.5455 10.0002 10.5455ZM10.0002 10.5455V13.0455M16.6668 10.1289C16.6668 13.8465 12.1169 16.5403 10.5347 17.3647C10.3636 17.4539 10.278 17.4984 10.1593 17.5215C10.0668 17.5395 9.9335 17.5395 9.84104 17.5215C9.72234 17.4984 9.63677 17.4539 9.46564 17.3647C7.88346 16.5403 3.3335 13.8465 3.3335 10.1289V6.97688C3.3335 6.31062 3.3335 5.97749 3.44246 5.69113C3.53872 5.43816 3.69515 5.21244 3.89821 5.03349C4.12808 4.83091 4.43999 4.71394 5.06383 4.48L9.532 2.80444C9.70524 2.73947 9.79187 2.70699 9.88098 2.69411C9.96003 2.68269 10.0403 2.68269 10.1193 2.69411C10.2085 2.70699 10.2951 2.73947 10.4683 2.80444L14.9365 4.48C15.5603 4.71394 15.8722 4.83091 16.1021 5.03349C16.3052 5.21244 16.4616 5.43816 16.5579 5.69113C16.6668 5.97749 16.6668 6.31062 16.6668 6.97688V10.1289Z" stroke="#D1B096" stroke-width="2" stroke-linecap="round" stroke-linejoin="round"/>
</svg>
