<svg width="20" height="20" viewBox="0 0 20 20" fill="none" xmlns="http://www.w3.org/2000/svg">
<path fill-rule="evenodd" clip-rule="evenodd" d="M13.4529 13.2981C14.7231 12.542 15.7099 11.3898 16.2619 10.0185C16.8139 8.64726 16.9004 7.13272 16.5083 5.70749C16.1162 4.28226 15.2671 3.02515 14.0914 2.12921C12.9156 1.23327 11.4783 0.748047 10.0001 0.748047C8.52195 0.748047 7.08463 1.23327 5.90891 2.12921C4.73318 3.02515 3.88406 4.28226 3.49195 5.70749C3.09984 7.13272 3.18641 8.64726 3.73837 10.0185C4.29033 11.3898 5.27716 12.542 6.54732 13.2981C3.97951 14.1362 1.77919 15.9062 0.351382 18.3756C0.299021 18.461 0.264291 18.556 0.24924 18.655C0.234189 18.754 0.239122 18.855 0.263748 18.9521C0.288374 19.0492 0.332195 19.1404 0.392624 19.2202C0.453053 19.3001 0.528867 19.367 0.615593 19.4171C0.702318 19.4672 0.798198 19.4995 0.897577 19.5119C0.996955 19.5243 1.09782 19.5167 1.19421 19.4896C1.29061 19.4624 1.38059 19.4162 1.45884 19.3537C1.53709 19.2912 1.60203 19.2136 1.64982 19.1256C3.41607 16.0731 6.53794 14.2506 10.0001 14.2506C13.4623 14.2506 16.5842 16.0731 18.3504 19.1256C18.3982 19.2136 18.4632 19.2912 18.5414 19.3537C18.6197 19.4162 18.7097 19.4624 18.806 19.4896C18.9024 19.5167 19.0033 19.5243 19.1027 19.5119C19.2021 19.4995 19.2979 19.4672 19.3847 19.4171C19.4714 19.367 19.5472 19.3001 19.6076 19.2202C19.6681 19.1404 19.7119 19.0492 19.7365 18.9521C19.7611 18.855 19.7661 18.754 19.751 18.655C19.736 18.556 19.7012 18.461 19.6489 18.3756C18.2211 15.9072 16.0208 14.1372 13.4529 13.2981ZM5.63492 4.58385C6.21179 3.7205 7.03173 3.04759 7.99104 2.65023C8.95036 2.25287 10.006 2.1489 11.0244 2.35147C12.0428 2.55405 12.9782 3.05406 13.7124 3.78829C14.4467 4.52251 14.9467 5.45797 15.1493 6.47637C15.3518 7.49477 15.2479 8.55037 14.8505 9.50969C14.4531 10.469 13.7802 11.2889 12.9169 11.8658C12.0535 12.4427 11.0385 12.7506 10.0001 12.7506C8.6082 12.7491 7.27371 12.1955 6.28947 11.2113C5.30522 10.227 4.75162 8.89253 4.75013 7.5006C4.75013 6.46225 5.05804 5.44721 5.63492 4.58385Z" fill="white"/>
</svg>
