<svg width="20" height="21" viewBox="0 0 20 21" fill="none" xmlns="http://www.w3.org/2000/svg">
<path d="M10.8333 16.7865V15.1198C10.8333 12.8186 8.96785 10.9531 6.66667 10.9531C4.36548 10.9531 2.5 12.8186 2.5 15.1198V16.7865H10.8333ZM10.8333 16.7865H17.5V15.9531C17.5 13.4985 15.6345 11.7865 13.3333 11.7865C12.1556 11.7865 11.0919 12.3077 10.3341 13.1457M9.16667 5.95312C9.16667 7.33384 8.04738 8.45312 6.66667 8.45312C5.28595 8.45312 4.16667 7.33384 4.16667 5.95312C4.16667 4.57241 5.28595 3.45312 6.66667 3.45312C8.04738 3.45312 9.16667 4.57241 9.16667 5.95312ZM15 7.61979C15 8.54027 14.2538 9.28646 13.3333 9.28646C12.4129 9.28646 11.6667 8.54027 11.6667 7.61979C11.6667 6.69932 12.4129 5.95312 13.3333 5.95312C14.2538 5.95312 15 6.69932 15 7.61979Z" stroke="#D1B096" stroke-width="2" stroke-linecap="round" stroke-linejoin="round"/>
</svg>
