<svg width="18" height="18" viewBox="0 0 18 18" fill="none" xmlns="http://www.w3.org/2000/svg">
<path d="M2.25 6L6.33744 8.72496C7.29971 9.36647 7.78085 9.68723 8.30088 9.81185C8.76046 9.92198 9.23954 9.92198 9.69911 9.81185C10.2192 9.68723 10.7003 9.36647 11.6626 8.72496L15.75 6M4.65 14.25H13.35C14.1901 14.25 14.6101 14.25 14.931 14.0865C15.2132 13.9427 15.4427 13.7132 15.5865 13.431C15.75 13.1101 15.75 12.6901 15.75 11.85V6.15C15.75 5.30992 15.75 4.88988 15.5865 4.56901C15.4427 4.28677 15.2132 4.0573 14.931 3.91349C14.6101 3.75 14.1901 3.75 13.35 3.75H4.65C3.80992 3.75 3.38988 3.75 3.06901 3.91349C2.78677 4.0573 2.5573 4.28677 2.41349 4.56901C2.25 4.88988 2.25 5.30992 2.25 6.15V11.85C2.25 12.6901 2.25 13.1101 2.41349 13.431C2.5573 13.7132 2.78677 13.9427 3.06901 14.0865C3.38988 14.25 3.80992 14.25 4.65 14.25Z" stroke="white" strokeWidth="0.84" strokeLinecap="round" strokeLinejoin="round"/>
</svg>
