<svg width="19" height="18" viewBox="0 0 19 18" fill="none" xmlns="http://www.w3.org/2000/svg">
<path fill-rule="evenodd" clip-rule="evenodd" d="M3 9C3 12.3375 5.4375 15.1125 8.625 15.675L8.66262 15.6449C8.65008 15.6425 8.63754 15.64 8.625 15.6375V10.875H6.9375V9H8.625V7.5C8.625 5.8125 9.7125 4.875 11.25 4.875C11.7375 4.875 12.2625 4.95 12.75 5.025V6.75H11.8875C11.0625 6.75 10.875 7.1625 10.875 7.6875V9H12.675L12.375 10.875H10.875V15.6375C10.8625 15.64 10.8499 15.6425 10.8374 15.6449L10.875 15.675C14.0625 15.1125 16.5 12.3375 16.5 9C16.5 5.2875 13.4625 2.25 9.75 2.25C6.0375 2.25 3 5.2875 3 9Z" fill="white"/>
</svg>
