<svg width="18" height="18" viewBox="0 0 18 18" fill="none" xmlns="http://www.w3.org/2000/svg">
<path d="M9.00088 2.45508C7.2233 2.45508 7.00021 2.46285 6.30205 2.49462C5.60526 2.52653 5.12963 2.63685 4.71346 2.79871C4.28298 2.9659 3.91781 3.18953 3.554 3.55349C3.18992 3.91731 2.96629 4.28249 2.79857 4.71285C2.6363 5.12917 2.52585 5.60494 2.49449 6.30149C2.46326 6.99967 2.45508 7.2229 2.45508 9.00053C2.45508 10.7782 2.46299 11.0006 2.49462 11.6988C2.52667 12.3956 2.63698 12.8712 2.7987 13.2874C2.96602 13.7179 3.18965 14.0831 3.55359 14.4469C3.91726 14.811 4.28243 15.0352 4.71265 15.2024C5.12909 15.3642 5.60485 15.4745 6.30151 15.5064C6.99967 15.5382 7.22262 15.546 9.00006 15.546C10.7778 15.546 11.0002 15.5382 11.6983 15.5064C12.3951 15.4745 12.8713 15.3642 13.2877 15.2024C13.7181 15.0352 14.0827 14.811 14.4464 14.4469C14.8105 14.0831 15.0341 13.7179 15.2018 13.2875C15.3627 12.8712 15.4732 12.3954 15.5059 11.6989C15.5373 11.0007 15.5455 10.7782 15.5455 9.00053C15.5455 7.2229 15.5373 6.9998 15.5059 6.30162C15.4732 5.60481 15.3627 5.12917 15.2018 4.71299C15.0341 4.28249 14.8105 3.91731 14.4464 3.55349C14.0823 3.1894 13.7182 2.96576 13.2873 2.79871C12.8701 2.63685 12.3942 2.52653 11.6974 2.49462C10.9992 2.46285 10.777 2.45508 8.99883 2.45508H9.00088ZM8.41372 3.63462C8.58798 3.63435 8.78243 3.63462 9.00088 3.63462C10.7485 3.63462 10.9556 3.6409 11.6457 3.67226C12.2839 3.70144 12.6302 3.80808 12.8609 3.89767C13.1664 4.01631 13.3842 4.15812 13.6131 4.38721C13.8422 4.61631 13.984 4.83449 14.1029 5.13994C14.1925 5.3704 14.2993 5.71676 14.3283 6.35494C14.3597 7.04494 14.3665 7.25221 14.3665 8.99903C14.3665 10.7458 14.3597 10.9531 14.3283 11.6431C14.2991 12.2813 14.1925 12.6277 14.1029 12.8581C13.9843 13.1636 13.8422 13.3811 13.6131 13.61C13.384 13.8391 13.1665 13.9809 12.8609 14.0996C12.6305 14.1896 12.2839 14.2959 11.6457 14.3251C10.9557 14.3565 10.7485 14.3633 9.00088 14.3633C7.25316 14.3633 7.04603 14.3565 6.35605 14.3251C5.71789 14.2957 5.37154 14.189 5.14068 14.0994C4.83523 13.9808 4.61706 13.839 4.38797 13.6099C4.15889 13.3808 4.01708 13.1632 3.89817 12.8576C3.80858 12.6271 3.70181 12.2808 3.67277 11.6426C3.64141 10.9526 3.63513 10.7453 3.63513 8.9974C3.63513 7.24949 3.64141 7.04331 3.67277 6.35331C3.70195 5.71512 3.80858 5.36876 3.89817 5.13803C4.0168 4.83258 4.15889 4.6144 4.38797 4.38531C4.61706 4.15621 4.83523 4.0144 5.14068 3.89549C5.3714 3.80549 5.71789 3.69912 6.35605 3.66981C6.95985 3.64253 7.19384 3.63435 8.41372 3.63299V3.63462ZM12.4947 4.72144C12.0611 4.72144 11.7093 5.07285 11.7093 5.50662C11.7093 5.94026 12.0611 6.29208 12.4947 6.29208C12.9283 6.29208 13.2801 5.94026 13.2801 5.50662C13.2801 5.07299 12.9283 4.72117 12.4947 4.72117V4.72144ZM9.00088 5.63917C7.14462 5.63917 5.63962 7.14421 5.63962 9.00053C5.63962 10.8569 7.14462 12.3612 9.00088 12.3612C10.8571 12.3612 12.3616 10.8569 12.3616 9.00053C12.3616 7.14421 10.857 5.63917 9.00074 5.63917H9.00088ZM9.00088 6.81871C10.2058 6.81871 11.1826 7.79549 11.1826 9.00053C11.1826 10.2054 10.2058 11.1824 9.00088 11.1824C7.79587 11.1824 6.81913 10.2054 6.81913 9.00053C6.81913 7.79549 7.79587 6.81871 9.00088 6.81871Z" fill="white"/>
</svg>
