<svg width="18" height="18" viewBox="0 0 18 18" fill="none" xmlns="http://www.w3.org/2000/svg">
<path d="M2.25 4.125C2.25 10.5453 7.45469 15.75 13.875 15.75C14.1647 15.75 14.4519 15.7394 14.7362 15.7186C15.0625 15.6947 15.2257 15.6827 15.3742 15.5972C15.4972 15.5264 15.6139 15.4009 15.6756 15.273C15.75 15.1186 15.75 14.9386 15.75 14.5785V12.4655C15.75 12.1627 15.75 12.0113 15.7002 11.8815C15.6561 11.7668 15.5846 11.6647 15.4919 11.5842C15.387 11.493 15.2447 11.4412 14.9601 11.3378L12.555 10.4632C12.2239 10.3428 12.0583 10.2826 11.9012 10.2928C11.7627 10.3018 11.6294 10.3491 11.5162 10.4293C11.3878 10.5204 11.2972 10.6714 11.1159 10.9735L10.5 12C8.5126 11.0999 6.90142 9.48665 6 7.5L7.02647 6.88412C7.32859 6.70285 7.47964 6.61221 7.57067 6.4838C7.65094 6.37056 7.6982 6.23728 7.70722 6.09877C7.71744 5.9417 7.65723 5.77615 7.53683 5.44504L7.53683 5.44503L6.66224 3.03991C6.55875 2.75532 6.50701 2.61302 6.41581 2.50807C6.33526 2.41537 6.23317 2.34386 6.11852 2.29984C5.98872 2.25 5.83731 2.25 5.53449 2.25H3.42151C3.06141 2.25 2.88136 2.25 2.72698 2.32444C2.59913 2.38609 2.4736 2.50276 2.40278 2.62577C2.31726 2.7743 2.30531 2.93746 2.28142 3.26379C2.26059 3.54814 2.25 3.83533 2.25 4.125Z" stroke="white" strokeWidth="0.84" strokeLinecap="round" strokeLinejoin="round"/>
</svg>
