<svg width="19" height="18" viewBox="0 0 19 18" fill="none" xmlns="http://www.w3.org/2000/svg">
<path fill-rule="evenodd" clip-rule="evenodd" d="M15.3298 6.06672C15.3349 6.19788 15.3366 6.32899 15.3366 6.46016C15.3366 10.4368 12.5392 15.0276 7.42378 15.0276C5.8524 15.0276 4.39125 14.5268 3.16016 13.6742C3.37777 13.6981 3.59879 13.716 3.82319 13.716C5.12607 13.716 6.32608 13.233 7.27795 12.4222C6.06098 12.4043 5.03337 11.5279 4.67897 10.3355C4.84911 10.3712 5.02432 10.3892 5.2035 10.3892C5.45616 10.3892 5.70148 10.3534 5.93662 10.2819C4.66313 10.0076 3.70392 8.79142 3.70392 7.33073C3.70392 7.31285 3.70392 7.30685 3.70392 7.29492C4.07924 7.51552 4.50882 7.65257 4.96497 7.67046C4.21772 7.12792 3.72652 6.20383 3.72652 5.16048C3.72652 4.61198 3.86331 4.09326 4.1041 3.64611C5.47538 5.47048 7.52553 6.66886 9.8368 6.79406C9.78932 6.57347 9.76501 6.34101 9.76501 6.10849C9.76501 4.4451 11.0102 3.09766 12.5466 3.09766C13.3464 3.09766 14.0688 3.46139 14.5758 4.04567C15.2105 3.9145 15.8052 3.66412 16.3433 3.31832C16.1347 4.02184 15.6944 4.61195 15.119 4.98159C15.682 4.91005 16.2189 4.7492 16.7169 4.51072C16.3433 5.11288 15.873 5.64342 15.3298 6.06672Z" fill="white"/>
</svg>
