<svg width="31" height="32" viewBox="0 0 31 32" fill="none" xmlns="http://www.w3.org/2000/svg">
<path d="M3.80762 13.5289H26.7134M8.89778 4.62109V7.16618M21.6232 4.62109V7.16618M7.87975 27.5268H22.6412C24.0666 27.5268 24.7793 27.5268 25.3237 27.2494C25.8026 27.0054 26.192 26.6161 26.436 26.1372C26.7134 25.5928 26.7134 24.8801 26.7134 23.4547V11.2383C26.7134 9.81293 26.7134 9.10024 26.436 8.55581C26.192 8.07693 25.8026 7.68758 25.3237 7.44357C24.7793 7.16618 24.0666 7.16618 22.6412 7.16618H7.87975C6.45437 7.16618 5.74168 7.16618 5.19726 7.44357C4.71837 7.68758 4.32902 8.07693 4.08501 8.55581C3.80762 9.10024 3.80762 9.81293 3.80762 11.2383V23.4547C3.80762 24.8801 3.80762 25.5928 4.08501 26.1372C4.32902 26.6161 4.71837 27.0054 5.19726 27.2494C5.74168 27.5268 6.45437 27.5268 7.87975 27.5268Z" stroke="white" stroke-width="2.54508" stroke-linecap="round" stroke-linejoin="round"/>
</svg>
