<svg width="31" height="31" viewBox="0 0 31 31" fill="none" xmlns="http://www.w3.org/2000/svg">
<path d="M19.1987 23.0895H11.5637M17.9262 7.81945H12.8362M25.5612 4.00195H24.2887M24.2887 4.00195H6.47367M24.2887 4.00195C24.2887 7.19621 22.746 10.1938 20.1468 12.0505L15.3812 15.4545M6.47367 4.00195H5.20117M6.47367 4.00195C6.47367 7.19621 8.0163 10.1938 10.6156 12.0505L15.3812 15.4545M25.5612 26.907H24.2887M24.2887 26.907H6.47367M24.2887 26.907C24.2887 23.7127 22.746 20.7151 20.1468 18.8585L15.3812 15.4545M6.47367 26.907H5.20117M6.47367 26.907C6.47367 23.7127 8.0163 20.7151 10.6156 18.8585L15.3812 15.4545" stroke="white" stroke-width="2" stroke-linecap="round" stroke-linejoin="round"/>
</svg>
