<svg width="31" height="32" viewBox="0 0 31 32" fill="none" xmlns="http://www.w3.org/2000/svg">
<path d="M7.35273 20.3281C5.20053 21.1487 3.86523 22.2922 3.86523 23.5569C3.86523 26.0539 9.06992 28.0781 15.4902 28.0781C21.9105 28.0781 27.1152 26.0539 27.1152 23.5569C27.1152 22.2922 25.7799 21.1487 23.6277 20.3281M15.4902 12.5781H15.5032M23.2402 12.5781C23.2402 17.8271 17.4277 20.3281 15.4902 24.2031C13.5527 20.3281 7.74023 17.8271 7.74023 12.5781C7.74023 8.29792 11.21 4.82812 15.4902 4.82812C19.7704 4.82812 23.2402 8.29792 23.2402 12.5781ZM16.7819 12.5781C16.7819 13.2915 16.2036 13.8698 15.4902 13.8698C14.7769 13.8698 14.1986 13.2915 14.1986 12.5781C14.1986 11.8648 14.7769 11.2865 15.4902 11.2865C16.2036 11.2865 16.7819 11.8648 16.7819 12.5781Z" stroke="white" stroke-width="2" stroke-linecap="round" stroke-linejoin="round"/>
</svg>
