<svg width="47" height="41" viewBox="0 0 47 41" fill="none" xmlns="http://www.w3.org/2000/svg">
<g clip-path="url(#clip0_403_1795)">
<path d="M45.4179 0.863281H29.6055C26.8318 0.863281 24.5742 3.10614 24.5742 5.86328V10.8633H21.6992V5.86328C21.6992 3.10614 19.4416 0.863281 16.6679 0.863281H0.855469C0.458 0.863281 0.136719 1.18328 0.136719 1.57757V3.00614C0.136719 4.18757 1.10416 5.14899 2.29297 5.14899H3.01172V5.86328C3.01172 7.83257 4.62388 9.43471 6.60547 9.43471H15.2305C16.0426 9.43471 16.7844 9.15542 17.3867 8.70257V10.8633H14.5117C12.5991 10.8633 10.6707 12.289 10.1223 14.109L9.61847 15.7783C9.35253 16.6612 8.73656 17.7854 8.04369 18.7333V17.2919C8.04369 16.8976 7.72241 16.5776 7.32494 16.5776H3.73047C3.333 16.5776 3.01172 16.8976 3.01172 17.2919V19.4347C3.01172 19.7754 3.25394 20.0683 3.58959 20.1347L6.20872 20.6554L4.68353 22.0033C3.34235 23.1869 2.29297 25.5104 2.29297 27.2919V38.7204C2.29297 39.9019 3.26041 40.8633 4.44922 40.8633H10.1992C11.388 40.8633 12.3555 39.9019 12.3555 38.7204V37.2919H33.9179V38.7204C33.9179 39.9019 34.8854 40.8633 36.0742 40.8633H41.8242C43.013 40.8633 43.9805 39.9019 43.9805 38.7204V27.2919C43.9805 25.5104 42.9311 23.1869 41.5906 22.0026L40.0654 20.6554L42.6845 20.1347C43.0195 20.0683 43.2617 19.7754 43.2617 19.4347V17.2919C43.2617 16.8976 42.9404 16.5776 42.5429 16.5776H38.9492C38.5517 16.5776 38.2305 16.8976 38.2305 17.2919V18.7919C37.4693 17.8333 36.7498 16.689 36.3926 15.8026L35.653 13.9654C34.9522 12.2254 32.9275 10.8633 31.0429 10.8633H28.8867V8.70257C29.489 9.15542 30.2308 9.43471 31.0429 9.43471H39.6679C41.6495 9.43471 43.2617 7.83257 43.2617 5.86328V5.14899H43.9805C45.1693 5.14899 46.1367 4.18757 46.1367 3.00614V1.57757C46.1367 1.18328 45.8154 0.863281 45.4179 0.863281ZM15.2305 8.00614H6.60547C5.41666 8.00614 4.44922 7.04471 4.44922 5.86328V5.14899H16.6679C17.0647 5.14899 17.3867 5.46971 17.3867 5.86328C17.3867 7.04471 16.4193 8.00614 15.2305 8.00614ZM18.8242 5.86328C18.8242 4.68185 17.8568 3.72042 16.6679 3.72042H2.29297C1.89622 3.72042 1.57422 3.39971 1.57422 3.00614V2.29185H16.6679C18.6495 2.29185 20.2617 3.89399 20.2617 5.86328V10.8633H18.8242V5.86328ZM4.44922 18.0062H6.60547V19.2776L4.44922 18.849V18.0062ZM5.51225 23.1983L11.9515 25.7576L12.0579 25.8633L11.3391 26.5776H5.88672C4.57428 26.5776 4.45497 25.4797 4.44922 25.149C4.44922 25.0597 4.43125 24.9362 4.40106 24.8004C4.70653 24.1762 5.09178 23.609 5.51225 23.1983ZM33.1992 26.8733L34.1285 27.7969C34.263 27.9312 34.4455 28.0062 34.6367 28.0062H40.3867C41.3836 28.0062 42.0707 27.619 42.5286 27.0962C42.5322 27.1604 42.5429 27.2297 42.5429 27.2919V28.0062V29.4347H38.9492C37.9753 29.4347 36.6744 29.9704 35.9872 30.654C35.7062 30.9333 35.7062 31.3854 35.9872 31.6647C36.1274 31.804 36.3114 31.8733 36.4954 31.8733C36.6794 31.8733 36.8634 31.8033 37.0035 31.664C37.4254 31.2447 38.3526 30.8633 38.9492 30.8633H40.3867V31.5776C40.3867 32.3654 39.7413 33.0062 38.9492 33.0062H36.7929C36.3955 33.0062 36.0742 33.3262 36.0742 33.7204C36.0742 34.1147 36.3955 34.4347 36.7929 34.4347H38.9492C40.5348 34.4347 41.8242 33.1533 41.8242 31.5776V30.8633H42.5429V33.7204C42.5429 34.9019 41.5755 35.8633 40.3867 35.8633H34.9343L33.2862 34.2254C32.599 33.5419 31.2974 33.0062 30.3242 33.0062H15.5898C14.6159 33.0062 13.315 33.5419 12.6279 34.2254L10.9798 35.8633H5.88672C4.69791 35.8633 3.73047 34.9019 3.73047 33.7204V30.8633H4.44922V31.5776C4.44922 33.1533 5.73866 34.4347 7.32422 34.4347H9.48047C9.87794 34.4347 10.1992 34.1147 10.1992 33.7204C10.1992 33.3262 9.87794 33.0062 9.48047 33.0062H7.32422C6.53144 33.0062 5.88672 32.3654 5.88672 31.5776V30.8633H7.32422C7.92078 30.8633 8.84797 31.2447 9.26988 31.664C9.41003 31.8033 9.59403 31.8733 9.77803 31.8733C9.96203 31.8733 10.146 31.8033 10.2862 31.6647C10.5672 31.3854 10.5672 30.9333 10.2862 30.654C9.59906 29.9704 8.29741 29.4347 7.32422 29.4347H3.73047V28.0062V27.2919C3.73047 27.2297 3.74125 27.1604 3.74413 27.0962C4.20269 27.619 4.88981 28.0062 5.88672 28.0062H11.6367C11.8279 28.0062 12.0097 27.9312 12.1449 27.7969L13.0742 26.8733L14.0035 27.7969C14.1379 27.9312 14.3205 28.0062 14.5117 28.0062H20.6829L22.6285 29.9397C22.7687 30.079 22.9527 30.149 23.1367 30.149C23.3207 30.149 23.5047 30.079 23.6449 29.9397L25.5905 28.0062H31.7617C31.9529 28.0062 32.1347 27.9312 32.2699 27.7969L33.1992 26.8733ZM32.9016 35.8633H13.0124L13.6442 35.2354C14.0661 34.8162 14.9933 34.4347 15.5898 34.4347H30.3242C30.9208 34.4347 31.848 34.8162 32.2699 35.2354L32.9016 35.8633ZM10.1992 39.4347H4.44922C4.05247 39.4347 3.73047 39.114 3.73047 38.7204V36.5597C4.33278 37.0126 5.07453 37.2919 5.88672 37.2919H10.9179V38.7204C10.9179 39.114 10.596 39.4347 10.1992 39.4347ZM41.8242 39.4347H36.0742C35.6774 39.4347 35.3555 39.114 35.3555 38.7204V37.2919H40.3867C41.1989 37.2919 41.9406 37.0126 42.5429 36.5597V38.7204C42.5429 39.114 42.221 39.4347 41.8242 39.4347ZM41.8724 24.8004C41.8422 24.9362 41.8242 25.0597 41.8242 25.149C41.8242 25.3876 41.7545 26.5776 40.3867 26.5776H34.9343L34.2155 25.8633L34.3212 25.7576L40.7604 23.1983C41.1809 23.609 41.5669 24.1762 41.8724 24.8004ZM39.6679 18.0062H41.8242V18.849L39.6679 19.2776V18.0062ZM38.464 21.1526L39.5731 22.1319L33.6513 24.4854C33.5607 24.5212 33.4788 24.5754 33.4098 24.644L31.4641 26.5776H25.2929C25.1018 26.5776 24.9192 26.6526 24.7848 26.7869L23.1367 28.4247L21.4886 26.7869C21.3535 26.6526 21.1716 26.5776 20.9805 26.5776H14.8093L12.8636 24.644C12.7946 24.5754 12.7127 24.5219 12.6221 24.4854L6.70034 22.1319L7.80938 21.1519C8.48716 20.5526 9.19297 19.6647 9.78378 18.7204H36.3984C37.0459 19.6619 37.7927 20.559 38.464 21.1526ZM34.3183 14.4954L35.0579 16.3326C35.1786 16.6319 35.3411 16.9576 35.5208 17.2912H10.5614C10.7375 16.9104 10.8899 16.5362 10.9956 16.1883L11.4994 14.519C11.8631 13.3119 13.2424 12.2919 14.5117 12.2919H31.0429C32.3374 12.2919 33.8374 13.3012 34.3183 14.4954ZM41.8242 5.86328C41.8242 7.04471 40.8568 8.00614 39.6679 8.00614H31.0429C29.8541 8.00614 28.8867 7.04471 28.8867 5.86328C28.8867 5.46971 29.2087 5.14899 29.6055 5.14899H41.8242V5.86328ZM44.6992 3.00614C44.6992 3.39971 44.3772 3.72042 43.9805 3.72042H29.6055C28.4166 3.72042 27.4492 4.68185 27.4492 5.86328V10.8633H26.0117V5.86328C26.0117 3.89399 27.6239 2.29185 29.6055 2.29185H44.6992V3.00614Z" fill="#D1B096"/>
</g>
<defs>
<clipPath id="clip0_403_1795">
<rect width="46" height="40" fill="white" transform="translate(0.136719 0.863281)"/>
</clipPath>
</defs>
</svg>
