<svg width="36" height="43" viewBox="0 0 36 43" fill="none" xmlns="http://www.w3.org/2000/svg">
<g clip-path="url(#clip0_403_1817)">
<path d="M31.2786 26.4238C28.4076 25.1084 25.4606 23.9654 22.4534 23.0009C25.1081 20.5958 26.5373 16.1136 26.8942 12.7676C27.3544 11.6299 27.4909 10.0612 27.265 9.62124C27.7565 9.29933 28.1664 8.86753 28.4624 8.35995C28.7583 7.85237 28.9321 7.28292 28.97 6.69661C28.97 3.70573 24.2848 1.36328 18.3034 1.36328C12.3219 1.36328 7.63672 3.70573 7.63672 6.69661C7.67468 7.28293 7.84849 7.85238 8.1444 8.35997C8.44031 8.86756 8.85021 9.29937 9.34172 9.62128C9.0328 9.93061 9.39359 12.3045 9.71225 12.7676C10.0693 16.1136 11.4986 20.5959 14.1533 23.001C11.1461 23.9654 8.19918 25.1084 5.32813 26.4239C1.63672 28.3509 1.63672 36.6895 1.63672 40.6966C1.6367 40.7842 1.65393 40.8709 1.68742 40.9518C1.72092 41.0327 1.77002 41.1062 1.83193 41.1681C1.89384 41.23 1.96734 41.2791 2.04824 41.3126C2.12913 41.3461 2.21583 41.3633 2.30339 41.3633H34.3034C34.3909 41.3633 34.4776 41.3461 34.5585 41.3126C34.6394 41.2791 34.7129 41.23 34.7748 41.1681C34.8367 41.1062 34.8858 41.0327 34.9193 40.9518C34.9528 40.8709 34.9701 40.7842 34.97 40.6966C34.97 36.6895 34.97 28.3509 31.2786 26.4238ZM18.3034 2.69661C23.8037 2.69661 27.6367 4.80469 27.6367 6.69661C27.6367 8.58854 23.8037 10.6966 18.3034 10.6966C12.803 10.6966 8.97005 8.58854 8.97005 6.69661C8.97005 4.80469 12.803 2.69661 18.3034 2.69661ZM18.3034 12.03C20.9695 12.0964 23.6142 11.5395 26.0272 10.4036C26.0447 11.5197 25.6202 12.5973 24.8463 13.4016C24.0723 14.2058 23.0117 14.6714 21.8958 14.6966H14.7109C13.595 14.6714 12.5344 14.2058 11.7605 13.4016C10.9865 12.5973 10.562 11.5197 10.5796 10.4036C12.9925 11.5395 15.6373 12.0964 18.3034 12.03ZM11.427 14.8871C12.3628 15.6251 13.5192 16.0276 14.7109 16.03H21.8958C23.0874 16.0276 24.2436 15.6252 25.1793 14.8874C24.2688 18.8091 22.0107 23.3633 18.3034 23.3633C14.5956 23.3633 12.3375 18.8089 11.427 14.8871ZM18.3034 24.6966C19.2895 24.6977 20.2594 24.4453 21.1199 23.9637C21.6377 24.1349 22.6755 24.482 23.9168 24.9173L20.7774 31.4448L20.0097 29.9011C20.0989 29.8422 20.1722 29.7624 20.2234 29.6687C20.2746 29.5749 20.302 29.4701 20.3034 29.3633V26.6966C20.3034 26.6091 20.2862 26.5224 20.2527 26.4415C20.2192 26.3606 20.1701 26.2871 20.1082 26.2252C20.0462 26.1633 19.9727 26.1142 19.8919 26.0807C19.811 26.0472 19.7243 26.0299 19.6367 26.03H16.97C16.8825 26.0299 16.7958 26.0472 16.7149 26.0807C16.634 26.1142 16.5605 26.1633 16.4986 26.2252C16.4367 26.2871 16.3876 26.3606 16.3541 26.4415C16.3206 26.5224 16.3033 26.6091 16.3034 26.6966V29.3633C16.3047 29.4701 16.3322 29.5749 16.3833 29.6687C16.4345 29.7624 16.5079 29.8422 16.597 29.9011L15.7517 31.6008L12.4212 25.0114C13.7984 24.5259 14.9611 24.138 15.4878 23.9642C16.3481 24.4455 17.3176 24.6977 18.3034 24.6966ZM18.97 28.6966H17.6367V27.3633H18.97V28.6966ZM18.0224 30.03H18.5846L20.0452 32.9671L18.2884 36.6198L16.5034 33.0881L18.0224 30.03ZM2.97072 40.03C2.98211 36.4968 3.1605 29.0599 5.94533 27.6061C7.64068 26.795 9.38041 26.08 11.1562 25.4646L17.7083 38.4278C17.764 38.5378 17.8491 38.6303 17.9541 38.6949C18.0592 38.7594 18.1801 38.7936 18.3034 38.7936H18.3099C18.4343 38.7924 18.5559 38.7563 18.6609 38.6896C18.766 38.6229 18.8503 38.5281 18.9043 38.416L25.1805 25.3669C27.0483 26.0092 28.8782 26.7569 30.6615 27.6061C33.4463 29.0599 33.6247 36.4968 33.636 40.03H2.97072Z" fill="#D1B096" stroke="#D1B096" strokeWidth="0.8"/>
</g>
<defs>
<clipPath id="clip0_403_1817">
<rect width="35" height="42" fill="white" transform="translate(0.636719 0.363281)"/>
</clipPath>
</defs>
</svg>
