<svg width="45" height="45" viewBox="0 0 45 45" fill="none" xmlns="http://www.w3.org/2000/svg">
<path d="M18.0113 16.8809C18.4058 16.8809 18.7257 16.561 18.7257 16.1665C18.7257 14.4492 20.1228 13.0522 21.8916 13.0522C21.8913 13.0522 21.892 13.0522 21.8916 13.0522C22.8495 13.0675 23.6598 13.6197 24.0586 14.5288C24.3952 15.2972 24.4583 16.4515 23.6243 17.3867L17.478 24.2816C17.2906 24.4919 17.2442 24.7923 17.3594 25.0493C17.4745 25.3061 17.7298 25.4714 18.0113 25.4714H24.7367C25.1312 25.4714 25.4511 25.1515 25.4511 24.757C25.4511 24.3625 25.1312 24.0426 24.7367 24.0426H19.6051L24.691 18.3376C25.765 17.1327 26.0238 15.4535 25.367 13.9549C24.7471 12.5415 23.4247 11.6482 21.9157 11.6234C21.9115 11.6234 21.8442 11.623 21.8404 11.623C19.3351 11.623 17.2969 13.6612 17.2969 16.1665C17.2969 16.561 17.6168 16.8809 18.0113 16.8809Z" fill="#D1B096"/>
<path d="M21.8916 13.0522C20.1228 13.0522 18.7257 14.4492 18.7257 16.1665C18.7257 16.561 18.4058 16.8809 18.0113 16.8809C17.6168 16.8809 17.2969 16.561 17.2969 16.1665C17.2969 13.6612 19.3351 11.623 21.8404 11.623C21.8442 11.623 21.9115 11.6234 21.9157 11.6234C23.4247 11.6482 24.7471 12.5415 25.367 13.9549C26.0238 15.4535 25.765 17.1327 24.691 18.3376L19.6051 24.0426H24.7367C25.1312 24.0426 25.4511 24.3625 25.4511 24.757C25.4511 25.1515 25.1312 25.4714 24.7367 25.4714H18.0113C17.7298 25.4714 17.4745 25.3061 17.3594 25.0493C17.2442 24.7923 17.2906 24.4919 17.478 24.2816L23.6243 17.3867C24.4583 16.4515 24.3952 15.2972 24.0586 14.5288C23.6598 13.6197 22.8495 13.0675 21.8916 13.0522ZM21.8916 13.0522C21.8913 13.0522 21.892 13.0522 21.8916 13.0522V13.0522Z" fill="#D1B096"/>
<path d="M21.8916 13.0522C20.1228 13.0522 18.7257 14.4492 18.7257 16.1665C18.7257 16.561 18.4058 16.8809 18.0113 16.8809C17.6168 16.8809 17.2969 16.561 17.2969 16.1665C17.2969 13.6612 19.3351 11.623 21.8404 11.623C21.8442 11.623 21.9115 11.6234 21.9157 11.6234C23.4247 11.6482 24.7471 12.5415 25.367 13.9549C26.0238 15.4535 25.765 17.1327 24.691 18.3376L19.6051 24.0426H24.7367C25.1312 24.0426 25.4511 24.3625 25.4511 24.757C25.4511 25.1515 25.1312 25.4714 24.7367 25.4714H18.0113C17.7298 25.4714 17.4745 25.3061 17.3594 25.0493C17.2442 24.7923 17.2906 24.4919 17.478 24.2816L23.6243 17.3867C24.4583 16.4515 24.3952 15.2972 24.0586 14.5288C23.6598 13.6197 22.8495 13.0675 21.8916 13.0522ZM21.8916 13.0522C21.8913 13.0522 21.892 13.0522 21.8916 13.0522Z" stroke="#D1B096" strokeWidth="0.5"/>
<path d="M27.6401 22.3796H32.2767V24.7575C32.2767 25.1521 32.5965 25.4719 32.9911 25.4719C33.3856 25.4719 33.7055 25.1521 33.7055 24.7575V22.3796H35.249C35.6435 22.3796 35.9634 22.0597 35.9634 21.6652C35.9634 21.2707 35.6435 20.9508 35.249 20.9508H33.7055V18.3761C33.7055 17.9816 33.3856 17.6617 32.9911 17.6617C32.5965 17.6617 32.2767 17.9816 32.2767 18.3761V20.9508H28.7528L32.5603 12.6355C32.7246 12.2765 32.5669 11.8527 32.2083 11.6884C31.849 11.5234 31.4255 11.6818 31.2612 12.0404L26.9906 21.3676C26.8894 21.5888 26.9075 21.8466 27.039 22.051C27.1702 22.2558 27.3969 22.3796 27.6401 22.3796Z" fill="#D1B096" stroke="#D1B096" strokeWidth="0.5"/>
<path d="M18.0039 40.9815C19.5918 42.5694 21.6774 43.3633 23.7634 43.3633C25.849 43.3633 27.935 42.5694 29.5229 40.9815L32.8946 37.6094C33.2682 37.2362 33.4737 36.7408 33.4737 36.2148C33.4737 35.6891 33.2682 35.1938 32.8946 34.8206L32.6443 34.5702C39.2614 32.029 43.6343 25.732 43.6343 18.5444C43.6343 9.07058 35.9235 1.36328 26.4459 1.36328C19.2559 1.36328 12.9617 5.73537 10.4266 12.3521L10.17 12.0956C9.40611 11.3317 8.15662 11.3299 7.38013 12.096L4.01606 15.4677C2.48053 17.0032 1.63567 19.0512 1.63672 21.2348C1.63812 23.4147 2.48332 25.4577 4.01571 26.9866L18.0039 40.9815ZM11.5364 13.462C13.7005 7.06204 19.6389 2.79207 26.4459 2.79207C35.1358 2.79207 42.2055 9.85858 42.2055 18.5444C42.2055 25.3489 37.9355 31.2901 31.5352 33.4608L28.512 30.4376C28.1436 30.064 27.6504 29.8571 27.1236 29.855C27.1212 29.855 27.1188 29.855 27.1163 29.855C27.1098 29.855 27.1037 29.8569 27.0972 29.8569C26.5547 29.843 26.0881 30.065 25.7186 30.4348L22.9733 33.1874C22.7954 33.3628 22.5097 33.3656 22.336 33.1915L11.8025 22.6581C11.6323 22.485 11.6306 22.1969 11.7987 22.0284L14.5562 19.2713C14.9297 18.8977 15.1352 18.4024 15.1352 17.8764C15.1352 17.3507 14.9297 16.8553 14.5562 16.4821L11.5364 13.462ZM5.02696 16.4776L8.38754 13.1093C8.49394 13.0043 8.6366 12.9516 8.77823 12.9516C8.91811 12.9516 9.05694 13.0033 9.15984 13.1058L13.546 17.4926C13.6496 17.5959 13.7064 17.7323 13.7064 17.8764C13.7064 18.0208 13.6496 18.1572 13.546 18.2608L10.7885 21.0182C10.0644 21.742 10.0626 22.9277 10.7885 23.6644L21.3258 34.2017C22.0507 34.9273 23.2398 34.9294 23.98 34.201L26.7295 31.4443C26.8334 31.3403 26.9817 31.3103 27.1184 31.2838C27.2618 31.2845 27.3954 31.34 27.4983 31.4443L31.8844 35.8311C31.988 35.9344 32.0449 36.0708 32.0449 36.2148C32.0449 36.3592 31.988 36.4956 31.8844 36.5989L28.5127 39.9713C25.8937 42.5896 21.6328 42.5896 19.0145 39.9713L5.02556 25.9757C3.76281 24.7161 3.06691 23.032 3.06551 21.2338C3.06446 19.4325 3.76107 17.7435 5.02696 16.4776Z" fill="#D1B096" stroke="#D1B096" strokeWidth="0.5"/>
</svg>
