<svg width="37" height="42" viewBox="0 0 37 42" fill="none" xmlns="http://www.w3.org/2000/svg">
<g clip-path="url(#clip0_403_1790)">
<path d="M36.123 34.3925L30.9449 23.3516L31.0305 22.4102C31.0733 21.8538 31.2873 21.3831 31.6296 20.9552L32.7851 19.5857C34.4113 17.7028 34.4113 15.0068 32.7851 13.1238L31.6296 11.7972C31.2873 11.3693 31.0733 10.8985 31.0305 10.3422L30.9021 8.58762C30.6882 6.10556 28.7624 4.17983 26.2804 3.96586L24.5258 3.83747C23.9695 3.79468 23.4987 3.58071 23.0708 3.23835L21.7014 2.08291C19.8184 0.456738 17.1224 0.456738 15.2395 2.08291L13.9129 3.23835C13.4849 3.58071 13.0142 3.79468 12.4579 3.83747L10.7033 3.96586C8.22125 4.13703 6.29552 6.06277 6.12434 8.54483L5.99596 10.2994C5.95316 10.8557 5.73919 11.3265 5.39684 11.7544L4.2414 13.1238C2.61522 15.0068 2.61522 17.7028 4.2414 19.5857L5.39684 20.9552C5.73919 21.3831 5.95316 21.8538 5.99596 22.4102L6.08155 23.3516L0.860661 34.3925C0.475514 35.2056 0.603895 36.1471 1.11742 36.8318C1.67375 37.5593 2.52963 37.8588 3.42831 37.7305L7.10861 37.0457L8.94875 40.3409C9.3767 41.1112 10.147 41.5391 11.0029 41.5391H11.0884C11.9871 41.4963 12.7574 40.9828 13.1426 40.1697L17.208 31.6537C17.6359 31.7821 18.0639 31.8677 18.4918 31.8677C18.9198 31.8677 19.3905 31.7821 19.8184 31.6537L23.8411 40.1697C24.2262 40.9828 24.9965 41.4963 25.8952 41.5391H25.9808C26.8367 41.5391 27.6498 41.0684 28.0777 40.3409L29.8751 37.0457L33.5554 37.7305C34.4112 37.9016 35.3099 37.5593 35.8662 36.8318C36.4226 36.1471 36.5082 35.2056 36.123 34.3925ZM11.0029 38.9715L9.24831 35.7619C8.82037 34.9916 8.05008 34.5209 7.1942 34.5209C7.06581 34.5209 6.89464 34.5209 6.76625 34.5637L3.17155 35.2484L7.1514 26.7752C7.96449 27.845 9.24831 28.6153 10.7033 28.7009L12.4579 28.8293C13.0142 28.8721 13.4849 29.086 13.9129 29.4284L15.0255 30.4127L11.0029 38.9715ZM16.8657 28.7865L15.4962 27.631C14.6832 26.9463 13.6989 26.5184 12.629 26.4328L10.8745 26.3044C9.63346 26.2188 8.6492 25.2346 8.56361 23.9935L8.43522 22.239C8.34964 21.1691 7.96449 20.1849 7.23699 19.3718L6.08155 18.0024C5.26846 17.0609 5.26846 15.6487 6.08155 14.7072L7.23699 13.3378C7.9217 12.5247 8.34964 11.5404 8.43522 10.4706L8.56361 8.71601C8.6492 7.47497 9.63346 6.49071 10.8745 6.40512L12.629 6.27674C13.6989 6.19115 14.6832 5.806 15.4962 5.0785L16.8657 3.92306C17.3364 3.49512 17.9355 3.32394 18.4918 3.32394C19.0909 3.32394 19.6473 3.53791 20.118 3.92306L21.4874 5.0785C22.3005 5.76321 23.2848 6.19115 24.3546 6.27674L26.1092 6.40512C27.3502 6.49071 28.3345 7.47497 28.4201 8.71601L28.5485 10.4706C28.634 11.5404 29.0192 12.5247 29.7467 13.3378L30.9021 14.7072C31.7152 15.6487 31.7152 17.0609 30.9021 18.0024L29.7467 19.3718C29.062 20.1849 28.634 21.1691 28.5485 22.239L28.4201 23.9935C28.3345 25.2346 27.3502 26.2188 26.1092 26.3044L24.3546 26.4328C23.2848 26.5184 22.3005 26.9035 21.4874 27.631L20.118 28.7865C19.1765 29.5996 17.8071 29.5996 16.8657 28.7865ZM30.2602 34.6065C29.2332 34.4353 28.2489 34.906 27.7354 35.8047L25.9808 39.0143L21.9582 30.4982L23.0708 29.514C23.4987 29.1716 23.9695 28.9577 24.5258 28.9149L26.2804 28.7865C27.7354 28.6581 29.0192 27.9306 29.8323 26.8607L33.8121 35.334L30.2602 34.6065Z" fill="#D1B096"/>
<path d="M22.6016 19.2432C22.8156 17.1035 21.1466 15.3062 19.0497 15.3062H17.9371C17.0812 15.3062 16.3537 14.5359 16.4393 13.68C16.5248 12.9097 17.2097 12.3534 18.0227 12.3534H19.3493C19.8629 12.3534 20.2479 12.6957 20.3763 13.1665C20.4191 13.2949 20.5047 13.3804 20.6759 13.3804H22.1737C22.3449 13.3804 22.4732 13.2521 22.4732 13.0809C22.3021 11.5831 21.1038 10.3849 19.5632 10.2993V8.80151C19.5632 8.63033 19.4349 8.50195 19.2638 8.50195H17.7659C17.5947 8.50195 17.4663 8.63033 17.4663 8.80151V10.2993C15.6262 10.5561 14.214 12.225 14.3851 14.1935C14.5563 16.0337 16.2253 17.4031 18.1082 17.4031H19.0925C19.9484 17.4031 20.6759 18.1734 20.5903 19.0293C20.5047 19.7996 19.82 20.3559 19.0069 20.3559H17.6375C17.124 20.3559 16.7388 20.0135 16.6104 19.5428C16.5676 19.4144 16.4393 19.3288 16.3109 19.3288H14.8131C14.6419 19.3288 14.5135 19.4572 14.5135 19.6284C14.6847 21.1262 15.8829 22.3244 17.4235 22.41V23.9078C17.4235 24.079 17.5519 24.2074 17.7231 24.2074H19.2209C19.3921 24.2074 19.5204 24.079 19.5204 23.9078V22.3672C21.1038 22.1105 22.4304 20.8694 22.6016 19.2432Z" fill="#D1B096"/>
</g>
<defs>
<clipPath id="clip0_403_1790">
<rect width="36" height="41" fill="white" transform="translate(0.636719 0.863281)"/>
</clipPath>
</defs>
</svg>
