<svg width="41" height="44" viewBox="0 0 41 44" fill="none" xmlns="http://www.w3.org/2000/svg">
<g clip-path="url(#clip0_403_1821)">
<path d="M37.0691 13.5248L35.817 14.7705C37.7775 17.3419 38.9969 20.3864 39.3466 23.5828C39.6964 26.7793 39.1634 30.0094 37.804 32.9327C36.4446 35.856 34.3091 38.3642 31.6226 40.1929C28.9361 42.0216 25.7981 43.1031 22.5393 43.3234C22.125 43.35 21.7136 43.3633 21.3053 43.3633C18.7638 43.3687 16.2498 42.8469 13.9271 41.8317C11.6044 40.8166 9.52514 39.331 7.82496 37.4718C7.63295 37.2525 7.53575 36.968 7.55412 36.6791C7.5725 36.3902 7.705 36.1198 7.9233 35.9258C8.14159 35.7318 8.42834 35.6296 8.72223 35.6409C9.01612 35.6523 9.29381 35.7765 9.49592 35.9868C12.2934 39.0349 16.1959 40.8788 20.362 41.1212C24.5281 41.3635 28.6241 39.9848 31.7669 37.2823C34.9098 34.5798 36.8478 30.7699 37.163 26.6741C37.4783 22.5782 36.1457 18.5244 33.4524 15.3867C33.269 15.1743 33.1736 14.9017 33.1853 14.6232C33.197 14.3446 33.3149 14.0807 33.5155 13.8839L35.4792 11.9511C35.6163 11.8018 35.69 11.6064 35.6848 11.4052C35.6797 11.2039 35.5962 11.0124 35.4516 10.87C35.307 10.7277 35.1123 10.6455 34.9079 10.6405C34.7035 10.6354 34.5049 10.7079 34.3532 10.8429L32.3129 12.851C32.1211 13.0398 31.8664 13.154 31.5959 13.1727C31.3253 13.1915 31.0569 13.1134 30.8401 12.953C28.5804 11.285 25.9091 10.2412 23.1023 9.92966C22.8268 9.9002 22.572 9.77175 22.3867 9.56891C22.2013 9.36606 22.0985 9.10307 22.0979 8.83028V5.2573C22.0956 5.11027 22.1229 4.96425 22.1784 4.82774C22.2339 4.69123 22.3165 4.56695 22.4213 4.46216C22.5261 4.35736 22.651 4.27414 22.7888 4.21734C22.9266 4.16054 23.0745 4.1313 23.2239 4.13132H24.2553C24.4668 4.13132 24.6695 4.04865 24.819 3.9015C24.9685 3.75435 25.0525 3.55478 25.0525 3.34668C25.0525 3.13858 24.9685 2.939 24.819 2.79186C24.6695 2.64471 24.4668 2.56204 24.2553 2.56204H18.3462C18.1347 2.56204 17.932 2.64471 17.7825 2.79186C17.633 2.939 17.549 3.13858 17.549 3.34668C17.549 3.55478 17.633 3.75435 17.7825 3.9015C17.932 4.04865 18.1347 4.13132 18.3462 4.13132H19.3776C19.6762 4.13132 19.9626 4.24808 20.1738 4.45592C20.3849 4.66375 20.5036 4.94564 20.5036 5.23956V8.83028C20.5031 9.10239 20.4009 9.36481 20.2165 9.56756C20.0321 9.7703 19.7784 9.89919 19.5037 9.92966C15.8636 10.3399 12.4786 11.9729 9.91929 14.5533C9.81549 14.6575 9.69185 14.7406 9.55544 14.7977C9.41902 14.8549 9.2725 14.8851 9.12423 14.8865C8.8248 14.8894 8.53646 14.7751 8.32264 14.5688C8.10883 14.3625 7.98704 14.081 7.98409 13.7863C7.98113 13.4916 8.09724 13.2078 8.30688 12.9973C10.9898 10.2989 14.4704 8.50379 18.2516 7.86832V6.34781C17.4858 6.27914 16.7746 5.92821 16.2605 5.36532C15.7465 4.80243 15.4675 4.06915 15.4794 3.31238C15.4914 2.5556 15.7934 1.83122 16.325 1.28434C16.8566 0.73746 17.5785 0.408473 18.3462 0.363281H24.2553C25.0229 0.408473 25.7449 0.73746 26.2765 1.28434C26.8081 1.83122 27.1101 2.5556 27.1221 3.31238C27.134 4.06915 26.855 4.80243 26.341 5.36532C25.8269 5.92821 25.1157 6.27914 24.3499 6.34781V7.85059C26.8673 8.26994 29.2662 9.20805 31.3896 10.6035L32.7408 9.27358C33.3124 8.71042 34.0878 8.39381 34.8966 8.39339C35.7053 8.39297 36.4811 8.70879 37.0533 9.27136C37.6255 9.83394 37.9472 10.5972 37.9476 11.3932C37.948 12.1892 37.6271 12.9528 37.0556 13.516L37.0691 13.5248ZM0.136719 19.8108C0.136719 20.1047 0.255349 20.3866 0.466513 20.5945C0.677676 20.8023 0.964076 20.9191 1.26271 20.9191H9.08156C9.38019 20.9191 9.66659 20.8023 9.87775 20.5945C10.0889 20.3866 10.2075 20.1047 10.2075 19.8108C10.2075 19.5169 10.0889 19.235 9.87775 19.0272C9.66659 18.8193 9.38019 18.7026 9.08156 18.7026H1.26721C0.969358 18.7026 0.683639 18.8187 0.472605 19.0256C0.26157 19.2325 0.142414 19.5132 0.141223 19.8064L0.136719 19.8108ZM12.9369 25.1836C12.9369 24.8897 12.8183 24.6078 12.6071 24.3999C12.396 24.1921 12.1096 24.0753 11.8109 24.0753H3.9966C3.69797 24.0753 3.41157 24.1921 3.20041 24.3999C2.98925 24.6078 2.87062 24.8897 2.87062 25.1836C2.87062 25.4775 2.98925 25.7594 3.20041 25.9672C3.41157 26.1751 3.69797 26.2918 3.9966 26.2918H11.8109C12.1096 26.2918 12.396 26.1751 12.6071 25.9672C12.8183 25.7594 12.9369 25.4775 12.9369 25.1836ZM1.26721 31.669H9.08156C9.38019 31.669 9.66659 31.5523 9.87775 31.3444C10.0889 31.1366 10.2075 30.8547 10.2075 30.5608C10.2075 30.2669 10.0889 29.985 9.87775 29.7771C9.66659 29.5693 9.38019 29.4526 9.08156 29.4526H1.26721C0.96858 29.4526 0.68218 29.5693 0.471017 29.7771C0.259853 29.985 0.141223 30.2669 0.141223 30.5608C0.141223 30.8547 0.259853 31.1366 0.471017 31.3444C0.68218 31.5523 0.96858 31.669 1.26721 31.669ZM27.5477 20.9058L24.6607 23.7473C25.0849 24.5403 25.2062 25.4567 25.0026 26.3303C24.7989 27.2038 24.2838 27.9765 23.5508 28.5081C22.8177 29.0398 21.9153 29.2951 21.0073 29.2278C20.0993 29.1605 19.2459 28.775 18.602 28.1412C17.9581 27.5075 17.5665 26.6676 17.4981 25.7739C17.4297 24.8802 17.6891 23.992 18.2292 23.2705C18.7694 22.5489 19.5545 22.042 20.442 21.8415C21.3295 21.6411 22.2606 21.7605 23.0663 22.178L25.9533 19.3365C26.058 19.2334 26.1823 19.1517 26.3191 19.0959C26.4559 19.0402 26.6025 19.0115 26.7505 19.0115C26.8986 19.0115 27.0452 19.0402 27.182 19.0959C27.3188 19.1517 27.443 19.2334 27.5477 19.3365C27.6524 19.4395 27.7355 19.5618 27.7921 19.6965C27.8488 19.8311 27.8779 19.9754 27.8779 20.1211C27.8779 20.2668 27.8488 20.4111 27.7921 20.5458C27.7355 20.6804 27.6524 20.8027 27.5477 20.9058ZM22.8456 25.4895C22.8456 25.1887 22.755 24.8948 22.5852 24.6447C22.4155 24.3947 22.1742 24.1998 21.8919 24.0847C21.6097 23.9696 21.299 23.9395 20.9994 23.9982C20.6997 24.0568 20.4244 24.2016 20.2084 24.4143C19.9923 24.6269 19.8452 24.8979 19.7856 25.1928C19.726 25.4878 19.7566 25.7935 19.8735 26.0713C19.9904 26.3492 20.1884 26.5866 20.4425 26.7537C20.6965 26.9208 20.9952 27.01 21.3007 27.01C21.7101 27.0088 22.1024 26.8482 22.3918 26.5633C22.6813 26.2784 22.8444 25.8924 22.8456 25.4895ZM21.3007 38.6776C23.506 38.681 25.678 38.1489 27.6243 37.1283C29.5706 36.1077 31.2309 34.6303 32.4582 32.827C33.6855 31.0236 34.4417 28.9501 34.6599 26.7903C34.8781 24.6304 34.5514 22.451 33.709 20.4451C32.8665 18.4392 31.5342 16.6689 29.8302 15.2911C28.1262 13.9134 26.1032 12.9707 23.9404 12.5467C21.7776 12.1226 19.542 12.2304 17.4317 12.8603C15.3214 13.4903 13.4015 14.623 11.8425 16.158C11.631 16.3661 11.5122 16.6484 11.5122 16.9427C11.5122 17.237 11.631 17.5192 11.8425 17.7273C12.0539 17.9354 12.3406 18.0523 12.6397 18.0523C12.9387 18.0523 13.2254 17.9354 13.4369 17.7273C14.9963 16.1898 16.9842 15.1421 19.1488 14.7169C21.3134 14.2917 23.5575 14.508 25.5972 15.3386C27.6369 16.1691 29.3804 17.5765 30.6071 19.3826C31.8338 21.1888 32.4886 23.3125 32.4886 25.485C32.4886 27.6576 31.8338 29.7813 30.6071 31.5874C29.3804 33.3936 27.6369 34.801 25.5972 35.6315C23.5575 36.462 21.3134 36.6784 19.1488 36.2532C16.9842 35.8279 14.9963 34.7803 13.4369 33.2428C13.2254 33.0347 12.9387 32.9177 12.6397 32.9177C12.3406 32.9177 12.0539 33.0347 11.8425 33.2428C11.631 33.4509 11.5122 33.7331 11.5122 34.0274C11.5122 34.3217 11.631 34.6039 11.8425 34.812C13.0835 36.0366 14.5576 37.0084 16.1806 37.6717C17.8035 38.335 19.5434 38.6768 21.3007 38.6776Z" fill="#D1B096"/>
</g>
<defs>
<clipPath id="clip0_403_1821">
<rect width="40" height="43" fill="white" transform="translate(0.136719 0.363281)"/>
</clipPath>
</defs>
</svg>
