<svg width="55" height="43" viewBox="0 0 55 43" fill="none" xmlns="http://www.w3.org/2000/svg">
<g clip-path="url(#clip0_403_1799)">
<path d="M23.6239 1.86328C21.6782 1.86328 20.0262 3.3298 19.7849 5.26882L19.6046 6.7068C19.4617 7.85438 20.3739 8.88825 21.5254 8.88825H32.0176C33.1691 8.88825 34.0813 7.85438 33.9384 6.7068L33.7581 5.26882C33.5168 3.3298 31.8648 1.86328 29.9192 1.86328H23.6239ZM23.6239 3.26837H29.9192C31.1703 3.26837 32.2149 4.19474 32.3701 5.44172L32.5477 6.87954C32.5891 7.21247 32.3517 7.48332 32.0176 7.48332H21.5254C21.1913 7.48332 20.9539 7.21247 20.9954 6.87954L21.173 5.44172C21.3281 4.19474 22.3727 3.26837 23.6239 3.26837Z" fill="#D1B096"/>
<path fill-rule="evenodd" clip-rule="evenodd" d="M22.9258 8.18555V10.9955H24.3247V8.18555H22.9258Z" fill="#D1B096"/>
<path fill-rule="evenodd" clip-rule="evenodd" d="M29.2227 8.18555V10.9955H30.6217V8.18555H29.2227Z" fill="#D1B096"/>
<path fill-rule="evenodd" clip-rule="evenodd" d="M23.8638 10.293C19.3444 10.293 15.4616 13.5492 14.6531 18.0149L13.8252 22.5867C13.3673 25.1161 13.1367 27.6805 13.1367 30.2512V33.4756H14.5357V30.2512C14.5357 27.7647 14.7595 25.2857 15.2023 22.8393L16.0302 18.2648C16.7194 14.4581 20.0114 11.6979 23.8638 11.6979H28.9897C32.8421 11.6979 36.1342 14.4581 36.8233 18.2648L37.6512 22.8393C38.0941 25.2857 38.3179 27.7647 38.3179 30.2512V33.4756H39.7168V30.2512C39.7168 27.6805 39.4862 25.1161 39.0283 22.5867L38.2004 18.0149C37.392 13.5492 33.5091 10.293 28.9897 10.293H23.8638Z" fill="#D1B096"/>
<path fill-rule="evenodd" clip-rule="evenodd" d="M23.7553 15.2109C22.1305 15.2109 20.7107 16.3459 20.3453 17.936L19.7169 20.68C19.0622 23.5293 18.7305 26.444 18.7305 29.3681V31.3685C18.7292 31.4616 18.7463 31.554 18.7809 31.6404C18.8155 31.7268 18.8668 31.8054 18.9319 31.8717C18.9969 31.938 19.0745 31.9906 19.16 32.0266C19.2455 32.0625 19.3373 32.081 19.43 32.081C19.5227 32.081 19.6145 32.0625 19.7 32.0266C19.7855 31.9906 19.8631 31.938 19.9281 31.8717C19.9932 31.8054 20.0445 31.7268 20.0791 31.6404C20.1137 31.554 20.1308 31.4616 20.1295 31.3685V29.3681C20.1295 26.5504 20.4467 23.7414 21.0776 20.9957L21.7088 18.2515C21.9293 17.2914 22.7743 16.6159 23.7553 16.6159H29.0943C30.0753 16.6159 30.9202 17.2914 31.1408 18.2515L31.7719 20.9957C32.4028 23.7414 32.7201 26.5504 32.7201 29.3681V31.3685C32.7188 31.4616 32.7359 31.554 32.7704 31.6404C32.805 31.7268 32.8563 31.8054 32.9214 31.8717C32.9865 31.938 33.064 31.9906 33.1496 32.0266C33.2351 32.0625 33.3268 32.081 33.4195 32.081C33.5122 32.081 33.604 32.0625 33.6895 32.0266C33.7751 31.9906 33.8526 31.938 33.9177 31.8717C33.9828 31.8054 34.0341 31.7268 34.0686 31.6404C34.1032 31.554 34.1203 31.4616 34.119 31.3685V29.3681C34.119 26.444 33.7873 23.5293 33.1327 20.68L32.5042 17.936C32.1389 16.3459 30.719 15.2109 29.0943 15.2109H23.7553Z" fill="#D1B096"/>
<path fill-rule="evenodd" clip-rule="evenodd" d="M11.0357 32.7736C10.2713 32.7736 9.63672 33.411 9.63672 34.1785C9.63642 34.2728 9.655 34.3661 9.69137 34.453C9.84543 38.5772 13.1875 41.9033 17.331 41.9033H35.5174C39.6617 41.9033 43.0043 38.5759 43.157 34.4503C43.193 34.3642 43.2116 34.2717 43.2116 34.1783C43.2116 33.4108 42.577 32.7734 41.8127 32.7734H39.7142C39.1457 32.7734 38.5861 32.9083 38.0776 33.1631L37.2661 33.5692C36.5267 33.9404 35.6835 34.0477 34.8753 33.874L33.8998 33.6655C28.9727 32.6051 23.8756 32.6051 18.9485 33.6655L17.9731 33.874C17.1648 34.0482 16.3216 33.9398 15.5823 33.5692L15.0221 33.2895C14.349 32.9518 13.608 32.7734 12.8554 32.7734L11.0357 32.7736ZM11.0357 34.1785H12.8554C13.3908 34.1785 13.9175 34.3064 14.3964 34.5459L14.9566 34.8257C15.9798 35.3397 17.1468 35.4891 18.2654 35.2485L19.2436 35.0372C23.9775 34.0183 28.8708 34.0183 33.6047 35.0372L34.5829 35.2485C35.7015 35.4896 36.8685 35.3397 37.8918 34.8257L38.7033 34.4196C39.0176 34.2619 39.3628 34.178 39.7142 34.178H41.8127C41.8127 37.6781 39.0024 40.5005 35.5174 40.5005H17.331C13.8459 40.5005 11.0357 37.6786 11.0357 34.1785Z" fill="#D1B096"/>
<path fill-rule="evenodd" clip-rule="evenodd" d="M18.0206 36.2774C17.8356 36.2803 17.6593 36.3569 17.5302 36.49C17.4012 36.6232 17.3299 36.8023 17.3321 36.9882V39.0957C17.3308 39.1888 17.3479 39.2812 17.3825 39.3676C17.417 39.454 17.4683 39.5326 17.5334 39.5989C17.5985 39.6652 17.6761 39.7179 17.7616 39.7538C17.8471 39.7897 17.9389 39.8082 18.0316 39.8082C18.1243 39.8082 18.216 39.7897 18.3015 39.7538C18.3871 39.7179 18.4646 39.6652 18.5297 39.5989C18.5948 39.5326 18.6461 39.454 18.6807 39.3676C18.7152 39.2812 18.7323 39.1888 18.731 39.0957V36.9882C18.7321 36.8943 18.7145 36.8012 18.6791 36.7143C18.6438 36.6274 18.5914 36.5485 18.5252 36.4823C18.459 36.416 18.3802 36.3636 18.2935 36.3285C18.2069 36.2933 18.1141 36.276 18.0206 36.2774Z" fill="#D1B096"/>
<path d="M11.6367 10.3635C11.6367 10.5535 11.483 10.7072 11.2929 10.7072C8.63931 10.7072 6.48047 12.8661 6.48047 15.5195C6.48047 15.7095 6.32672 15.8633 6.13672 15.8633C5.94672 15.8633 5.79297 15.7095 5.79297 15.5195C5.79297 12.8661 3.63413 10.7072 0.980469 10.7072C0.790467 10.7072 0.636719 10.5535 0.636719 10.3635C0.636719 10.1734 0.790467 10.0197 0.980469 10.0197C3.63413 10.0197 5.79297 7.86078 5.79297 5.20704C5.79297 5.01703 5.94672 4.86328 6.13672 4.86328C6.32672 4.86328 6.48047 5.01703 6.48047 5.20704C6.48047 7.86078 8.63931 10.0197 11.2929 10.0197C11.483 10.0197 11.6367 10.1734 11.6367 10.3635Z" fill="#D1B096"/>
<path d="M52.4003 25.3777C52.348 25.5423 52.1725 25.6333 52.0078 25.581C49.7086 24.8508 47.244 26.1274 46.5139 28.4264C46.4616 28.5911 46.2861 28.682 46.1215 28.6297C45.9568 28.5774 45.8659 28.4019 45.9182 28.2373C46.6483 25.9382 45.3718 23.4736 43.0726 22.7434C42.9079 22.6912 42.817 22.5156 42.8693 22.351C42.9216 22.1864 43.0971 22.0955 43.2617 22.1477C45.561 22.8779 48.0256 21.6013 48.7557 19.302C48.808 19.1374 48.9835 19.0465 49.1482 19.0987C49.3128 19.151 49.4037 19.3265 49.3514 19.4912C48.6212 21.7905 49.8977 24.2551 52.197 24.9853C52.3616 25.0376 52.4525 25.2131 52.4003 25.3777Z" fill="#D1B096"/>
<path fill-rule="evenodd" clip-rule="evenodd" d="M20.8175 35.5743C20.6325 35.5772 20.4562 35.6537 20.3271 35.7869C20.1981 35.9201 20.1268 36.0992 20.129 36.285V39.095C20.1276 39.1881 20.1448 39.2806 20.1793 39.367C20.2139 39.4533 20.2652 39.5319 20.3303 39.5982C20.3954 39.6645 20.4729 39.7172 20.5584 39.7531C20.644 39.789 20.7357 39.8076 20.8284 39.8076C20.9211 39.8076 21.0129 39.789 21.0984 39.7531C21.1839 39.7172 21.2615 39.6645 21.3266 39.5982C21.3917 39.5319 21.443 39.4533 21.4775 39.367C21.5121 39.2806 21.5292 39.1881 21.5279 39.095V36.285C21.529 36.1912 21.5113 36.0979 21.476 36.011C21.4406 35.9241 21.3883 35.8452 21.3221 35.779C21.2559 35.7127 21.1771 35.6605 21.0904 35.6253C21.0038 35.5902 20.911 35.5728 20.8175 35.5743Z" fill="#D1B096"/>
<path fill-rule="evenodd" clip-rule="evenodd" d="M23.6144 35.5743C23.4294 35.5772 23.2531 35.6537 23.1241 35.7869C22.995 35.9201 22.9238 36.0992 22.9259 36.285V39.095C22.9246 39.1881 22.9416 39.2806 22.9762 39.367C23.0108 39.4533 23.0621 39.5319 23.1272 39.5982C23.1922 39.6645 23.2698 39.7172 23.3553 39.7531C23.4408 39.789 23.5326 39.8076 23.6253 39.8076C23.718 39.8076 23.8098 39.789 23.8953 39.7531C23.9808 39.7172 24.0584 39.6645 24.1235 39.5982C24.1885 39.5319 24.2399 39.4533 24.2744 39.367C24.309 39.2806 24.3262 39.1881 24.3249 39.095V36.285C24.326 36.1912 24.3082 36.0979 24.2729 36.011C24.2375 35.9241 24.1853 35.8452 24.119 35.779C24.0528 35.7127 23.9741 35.6605 23.8874 35.6253C23.8007 35.5902 23.7078 35.5728 23.6144 35.5743Z" fill="#D1B096"/>
<path fill-rule="evenodd" clip-rule="evenodd" d="M26.4113 35.5743C26.2262 35.5772 26.0499 35.6537 25.9209 35.7869C25.7918 35.9201 25.7206 36.0992 25.7227 36.285V39.095C25.7214 39.1881 25.7385 39.2806 25.7731 39.367C25.8076 39.4533 25.859 39.5319 25.924 39.5982C25.9891 39.6645 26.0667 39.7172 26.1522 39.7531C26.2377 39.789 26.3295 39.8076 26.4222 39.8076C26.5149 39.8076 26.6067 39.789 26.6922 39.7531C26.7777 39.7172 26.8552 39.6645 26.9203 39.5982C26.9854 39.5319 27.0367 39.4533 27.0713 39.367C27.1059 39.2806 27.123 39.1881 27.1217 39.095V36.285C27.1227 36.1912 27.1051 36.0979 27.0697 36.011C27.0344 35.9241 26.982 35.8452 26.9158 35.779C26.8496 35.7127 26.7708 35.6605 26.6842 35.6253C26.5975 35.5902 26.5047 35.5728 26.4113 35.5743Z" fill="#D1B096"/>
<path fill-rule="evenodd" clip-rule="evenodd" d="M29.212 35.5743C29.027 35.5772 28.8507 35.6537 28.7216 35.7869C28.5926 35.9201 28.5213 36.0992 28.5235 36.285V39.095C28.5222 39.1881 28.5393 39.2806 28.5739 39.367C28.6084 39.4533 28.6597 39.5319 28.7248 39.5982C28.7899 39.6645 28.8675 39.7172 28.953 39.7531C29.0385 39.789 29.1303 39.8076 29.223 39.8076C29.3157 39.8076 29.4074 39.789 29.493 39.7531C29.5785 39.7172 29.656 39.6645 29.7211 39.5982C29.7862 39.5319 29.8375 39.4533 29.8721 39.367C29.9066 39.2806 29.9238 39.1881 29.9224 39.095V36.285C29.9235 36.1912 29.9059 36.0979 29.8705 36.011C29.8352 35.9241 29.7828 35.8452 29.7166 35.779C29.6504 35.7127 29.5716 35.6605 29.485 35.6253C29.3983 35.5902 29.3055 35.5728 29.212 35.5743Z" fill="#D1B096"/>
<path fill-rule="evenodd" clip-rule="evenodd" d="M32.0089 35.5743C31.8239 35.5772 31.6476 35.6537 31.5185 35.7869C31.3895 35.9201 31.3182 36.0992 31.3204 36.285V39.095C31.3191 39.1881 31.3362 39.2806 31.3707 39.367C31.4053 39.4533 31.4566 39.5319 31.5217 39.5982C31.5868 39.6645 31.6643 39.7172 31.7499 39.7531C31.8354 39.789 31.9271 39.8076 32.0198 39.8076C32.1125 39.8076 32.2043 39.789 32.2898 39.7531C32.3753 39.7172 32.4529 39.6645 32.518 39.5982C32.5831 39.5319 32.6344 39.4533 32.6689 39.367C32.7035 39.2806 32.7206 39.1881 32.7193 39.095V36.285C32.7204 36.1912 32.7027 36.0979 32.6674 36.011C32.632 35.9241 32.5797 35.8452 32.5135 35.779C32.4473 35.7127 32.3685 35.6605 32.2818 35.6253C32.1952 35.5902 32.1024 35.5728 32.0089 35.5743Z" fill="#D1B096"/>
<path fill-rule="evenodd" clip-rule="evenodd" d="M34.8059 36.2774C34.6209 36.2803 34.4445 36.3569 34.3155 36.49C34.1864 36.6232 34.1152 36.8023 34.1173 36.9882V39.0957C34.116 39.1888 34.1331 39.2812 34.1677 39.3676C34.2023 39.454 34.2536 39.5326 34.3187 39.5989C34.3838 39.6652 34.4613 39.7179 34.5468 39.7538C34.6323 39.7897 34.7241 39.8082 34.8168 39.8082C34.9095 39.8082 35.0013 39.7897 35.0868 39.7538C35.1723 39.7179 35.2499 39.6652 35.315 39.5989C35.38 39.5326 35.4314 39.454 35.4659 39.3676C35.5005 39.2812 35.5176 39.1888 35.5163 39.0957V36.9882C35.5174 36.8943 35.4997 36.8012 35.4644 36.7143C35.429 36.6274 35.3767 36.5485 35.3105 36.4823C35.2442 36.416 35.1655 36.3636 35.0788 36.3285C34.9921 36.2933 34.8993 36.276 34.8059 36.2774Z" fill="#D1B096"/>
</g>
<defs>
<clipPath id="clip0_403_1799">
<rect width="54" height="42" fill="white" transform="translate(0.636719 0.863281)"/>
</clipPath>
</defs>
</svg>
