<svg width="34" height="29" viewBox="0 0 34 29" fill="none" xmlns="http://www.w3.org/2000/svg">
<path d="M30.7866 26.5079H30.8366V26.4579V11.5854V11.5028L30.7634 11.5411L16.9814 18.7661C16.8541 18.8331 16.7143 18.8665 16.5751 18.8665C16.4358 18.8665 16.2961 18.8331 16.1688 18.7661L2.3882 11.5411L2.31498 11.5027V11.5854V26.4579V26.5079H2.36498H30.7866ZM30.8098 9.51002L30.8366 9.49598V9.46573V3.69635V3.64635H30.7866H2.36498H2.31498V3.69635V9.46573V9.49597L2.34176 9.51002L16.5518 16.96L16.5751 16.9722L16.5983 16.96L30.8098 9.51002ZM1.43288 1.86523H31.7187C32.2056 1.86523 32.6008 2.26341 32.6008 2.75579V27.3985C32.6008 27.8908 32.2056 28.289 31.7187 28.289H1.43288C0.946028 28.289 0.550781 27.8908 0.550781 27.3985V2.75579C0.550781 2.26341 0.946028 1.86523 1.43288 1.86523ZM17.9899 11.7814C17.9899 12.5688 17.355 13.2089 16.5758 13.2089C15.7966 13.2089 15.1617 12.5688 15.1617 11.7814C15.1617 10.9941 15.7966 10.354 16.5758 10.354C17.355 10.354 17.9899 10.9937 17.9899 11.7814Z" fill="white" stroke="#12181A" strokeWidth="0.1"/>
</svg>
