<svg width="24" height="25" viewBox="0 0 24 25" fill="none" xmlns="http://www.w3.org/2000/svg">
<path d="M12 5.14934C14.403 5.14934 14.688 5.15834 15.637 5.20134C16.514 5.24134 16.991 5.38834 17.308 5.51134C17.728 5.67434 18.028 5.86934 18.343 6.18434C18.658 6.49934 18.853 6.79934 19.016 7.21934C19.139 7.53634 19.286 8.01334 19.326 8.89034C19.369 9.83934 19.378 10.1243 19.378 12.5273C19.378 14.9303 19.369 15.2153 19.326 16.1643C19.286 17.0413 19.139 17.5183 19.016 17.8353C18.853 18.2553 18.658 18.5553 18.343 18.8703C18.028 19.1853 17.728 19.3803 17.308 19.5433C16.991 19.6663 16.514 19.8133 15.637 19.8533C14.688 19.8963 14.404 19.9053 12 19.9053C9.596 19.9053 9.312 19.8963 8.363 19.8533C7.486 19.8133 7.009 19.6663 6.692 19.5433C6.272 19.3803 5.972 19.1853 5.657 18.8703C5.342 18.5553 5.147 18.2553 4.984 17.8353C4.861 17.5183 4.714 17.0413 4.674 16.1643C4.631 15.2153 4.622 14.9303 4.622 12.5273C4.622 10.1243 4.631 9.83934 4.674 8.89034C4.714 8.01334 4.861 7.53634 4.984 7.21934C5.147 6.79934 5.342 6.49934 5.657 6.18434C5.972 5.86934 6.272 5.67434 6.692 5.51134C7.009 5.38834 7.486 5.24134 8.363 5.20134C9.312 5.15834 9.597 5.14934 12 5.14934ZM12 3.52734C9.556 3.52734 9.249 3.53734 8.289 3.58134C7.331 3.62534 6.677 3.77734 6.105 3.99934C5.513 4.22934 5.011 4.53734 4.511 5.03834C4.011 5.53834 3.703 6.04034 3.473 6.63234C3.25 7.20434 3.098 7.85834 3.054 8.81634C3.01 9.77634 3 10.0833 3 12.5273C3 14.9713 3.01 15.2783 3.054 16.2383C3.098 17.1963 3.25 17.8503 3.472 18.4233C3.702 19.0153 4.01 19.5173 4.51 20.0173C5.01 20.5173 5.512 20.8253 6.104 21.0553C6.676 21.2773 7.331 21.4303 8.289 21.4733C9.249 21.5173 9.556 21.5273 12 21.5273C14.444 21.5273 14.751 21.5173 15.711 21.4733C16.669 21.4293 17.323 21.2773 17.896 21.0553C18.488 20.8253 18.99 20.5173 19.49 20.0173C19.99 19.5173 20.298 19.0153 20.528 18.4233C20.75 17.8513 20.903 17.1963 20.946 16.2383C20.99 15.2783 21 14.9713 21 12.5273C21 10.0833 20.99 9.77634 20.946 8.81634C20.902 7.85834 20.75 7.20434 20.528 6.63134C20.298 6.03934 19.99 5.53734 19.49 5.03734C18.99 4.53734 18.488 4.22934 17.896 3.99934C17.324 3.77734 16.669 3.62434 15.711 3.58134C14.751 3.53734 14.444 3.52734 12 3.52734ZM12 7.90534C9.448 7.90534 7.378 9.97434 7.378 12.5273C7.378 15.0803 9.448 17.1493 12 17.1493C14.552 17.1493 16.622 15.0803 16.622 12.5273C16.622 9.97434 14.552 7.90534 12 7.90534ZM12 15.5273C10.343 15.5273 9 14.1843 9 12.5273C9 10.8703 10.343 9.52734 12 9.52734C13.657 9.52734 15 10.8703 15 12.5273C15 14.1843 13.657 15.5273 12 15.5273ZM16.804 6.64334C16.208 6.64334 15.724 7.12734 15.724 7.72334C15.724 8.31934 16.208 8.80334 16.804 8.80334C17.4 8.80334 17.884 8.31934 17.884 7.72334C17.884 7.12734 17.401 6.64334 16.804 6.64334Z" fill="#BFBFBF"/>
</svg>
