<svg width="27" height="27" viewBox="0 0 27 27" fill="none" xmlns="http://www.w3.org/2000/svg">
<path d="M3.375 6.1875C3.375 15.818 11.182 23.625 20.8125 23.625C21.247 23.625 21.6778 23.6091 22.1043 23.5779C22.5938 23.542 22.8386 23.5241 23.0613 23.3958C23.2459 23.2896 23.4209 23.1013 23.5133 22.9095C23.625 22.678 23.625 22.4079 23.625 21.8677V18.6983C23.625 18.244 23.625 18.0169 23.5502 17.8222C23.4842 17.6502 23.377 17.4971 23.2379 17.3763C23.0805 17.2395 22.867 17.1619 22.4401 17.0066L18.8325 15.6948C18.3358 15.5141 18.0875 15.4238 17.8518 15.4392C17.6441 15.4527 17.4442 15.5236 17.2743 15.644C17.0817 15.7805 16.9457 16.0071 16.6738 16.4603L15.75 18C12.7689 16.6499 10.3521 14.23 9 11.25L10.5397 10.3262C10.9929 10.0543 11.2195 9.91832 11.356 9.72569C11.4764 9.55584 11.5473 9.35592 11.5608 9.14816C11.5762 8.91255 11.4859 8.66422 11.3052 8.16756L11.3052 8.16755L9.99336 4.55986C9.83813 4.13298 9.76051 3.91954 9.62372 3.76211C9.50289 3.62305 9.34976 3.51579 9.17778 3.44976C8.98308 3.375 8.75596 3.375 8.30173 3.375H5.13227C4.59211 3.375 4.32204 3.375 4.09048 3.48666C3.89869 3.57914 3.7104 3.75414 3.60417 3.93866C3.47589 4.16145 3.45797 4.4062 3.42213 4.89569C3.39089 5.32222 3.375 5.753 3.375 6.1875Z" stroke="#D1B096" strokeWidth="1.03091" strokeLinecap="round" strokeLinejoin="round"/>
</svg>
