<svg width="34" height="35" viewBox="0 0 34 35" fill="none" xmlns="http://www.w3.org/2000/svg">
<path d="M14.5774 7.24303C15.8463 8.51529 15.8463 10.7771 14.5774 12.0494L12.1807 14.3112C14.0135 17.9865 17.3971 21.3793 21.0625 23.2169L23.3182 20.8138C24.5871 19.5416 26.8427 19.5416 28.1116 20.8138L31.7772 24.4893C33.0459 25.7615 33.0459 27.8819 31.6361 29.2955L28.1116 32.8296C21.0625 39.8977 -4.45507 14.1698 2.594 7.24303L6.11854 3.70898C7.52835 2.29535 9.64307 2.29535 10.9119 3.70898L14.5774 7.24303ZM19.9347 3.70898C18.8069 3.42625 19.2298 1.58854 20.4986 1.87127C26.8427 3.56761 31.7772 8.51529 33.4689 14.8766C33.7508 16.1489 31.9181 16.5729 31.6361 15.4421C30.0854 9.78755 25.715 5.26396 19.9347 3.70898ZM18.8069 8.0912C17.538 7.80849 18.102 5.97078 19.2298 6.25349C24.0231 7.52576 27.8297 11.3425 29.0985 16.1489C29.3804 17.2798 27.5477 17.8452 27.2657 16.5729C26.1378 12.4734 22.8953 9.2221 18.8069 8.0912ZM13.1676 8.51529L9.64307 4.98124C9.07914 4.41578 8.09227 4.41578 7.52835 4.98124L4.00382 8.51529C-1.21249 13.7457 21.6265 36.6464 26.8427 31.4159L30.3674 27.8819C30.9312 27.3164 30.9312 26.327 30.3674 25.7615L26.8427 22.2275C26.2789 21.5206 25.292 21.5206 24.5871 22.2275L21.9084 24.9133C21.6265 25.196 21.2035 25.3375 20.7806 25.196C16.4102 23.2169 12.1807 18.9761 10.207 14.5939C10.066 14.3112 10.066 13.7457 10.489 13.463L13.1676 10.7771C13.8725 10.0703 13.8725 9.08074 13.1676 8.51529Z" fill="white"/>
</svg>
